<?xml version="1.0" encoding="UTF-8" standalone="no"?>
<!-- Created with Inkscape (http://www.inkscape.org/) -->

<svg
   xmlns:dc="http://purl.org/dc/elements/1.1/"
   xmlns:cc="http://creativecommons.org/ns#"
   xmlns:rdf="http://www.w3.org/1999/02/22-rdf-syntax-ns#"
   xmlns:svg="http://www.w3.org/2000/svg"
   xmlns="http://www.w3.org/2000/svg"
   xmlns:xlink="http://www.w3.org/1999/xlink"
   xmlns:sodipodi="http://sodipodi.sourceforge.net/DTD/sodipodi-0.dtd"
   xmlns:inkscape="http://www.inkscape.org/namespaces/inkscape"
   width="210mm"
   height="297mm"
   viewBox="0 0 210 297"
   version="1.1"
   id="svg8"
   inkscape:version="0.92.2 (5c3e80d, 2017-08-06)"
   sodipodi:docname="Sablier du Geek.svg">
  <defs
     id="defs2">
    <linearGradient
       inkscape:collect="always"
       id="linearGradient3734">
      <stop
         style="stop-color:#00ccff;stop-opacity:1;"
         offset="0"
         id="stop3730" />
      <stop
         style="stop-color:#00ccff;stop-opacity:0;"
         offset="1"
         id="stop3732" />
    </linearGradient>
    <linearGradient
       inkscape:collect="always"
       id="linearGradient2629">
      <stop
         style="stop-color:#000000;stop-opacity:1"
         offset="0"
         id="stop2625" />
      <stop
         style="stop-color:#00ccff;stop-opacity:1"
         offset="1"
         id="stop2627" />
    </linearGradient>
    <linearGradient
       inkscape:collect="always"
       id="linearGradient2621">
      <stop
         style="stop-color:#000000;stop-opacity:1"
         offset="0"
         id="stop2617" />
      <stop
         style="stop-color:#2ad4ff;stop-opacity:1"
         offset="1"
         id="stop2619" />
    </linearGradient>
    <linearGradient
       inkscape:collect="always"
       id="linearGradient2450">
      <stop
         style="stop-color:#000000;stop-opacity:1;"
         offset="0"
         id="stop2446" />
      <stop
         style="stop-color:#00ccff;stop-opacity:1"
         offset="1"
         id="stop2448" />
    </linearGradient>
    <inkscape:perspective
       sodipodi:type="inkscape:persp3d"
       inkscape:vp_x="0 : 148.5 : 1"
       inkscape:vp_y="0 : 1000 : 0"
       inkscape:vp_z="210 : 148.5 : 1"
       inkscape:persp3d-origin="105 : 99 : 1"
       id="perspective46" />
    <linearGradient
       inkscape:collect="always"
       xlink:href="#linearGradient2450"
       id="linearGradient2452"
       x1="-263.35757"
       y1="79.070816"
       x2="1349.9855"
       y2="73.948257"
       gradientUnits="userSpaceOnUse" />
    <linearGradient
       inkscape:collect="always"
       xlink:href="#linearGradient2621"
       id="linearGradient2623"
       x1="104.76965"
       y1="13.159761"
       x2="109.04597"
       y2="271.87668"
       gradientUnits="userSpaceOnUse" />
    <linearGradient
       inkscape:collect="always"
       xlink:href="#linearGradient2629"
       id="linearGradient2631"
       x1="1048.5383"
       y1="1051.8091"
       x2="-369.71585"
       y2="1059.8901"
       gradientUnits="userSpaceOnUse" />
    <linearGradient
       inkscape:collect="always"
       xlink:href="#linearGradient3734"
       id="linearGradient3736"
       x1="-161.42857"
       y1="65.376831"
       x2="-284.28571"
       y2="-104.62318"
       gradientUnits="userSpaceOnUse" />
  </defs>
  <sodipodi:namedview
     id="base"
     pagecolor="#ffffff"
     bordercolor="#666666"
     borderopacity="1.0"
     inkscape:pageopacity="0.0"
     inkscape:pageshadow="2"
     inkscape:zoom="0.7"
     inkscape:cx="353.76751"
     inkscape:cy="620.5847"
     inkscape:document-units="mm"
     inkscape:current-layer="layer1"
     showgrid="false"
     inkscape:measure-start="102.143,292.143"
     inkscape:measure-end="102.143,349.286"
     inkscape:window-width="806"
     inkscape:window-height="1052"
     inkscape:window-x="2529"
     inkscape:window-y="38"
     inkscape:window-maximized="0"
     showguides="true"
     inkscape:guide-bbox="true" />
  <metadata
     id="metadata5">
    <rdf:RDF>
      <cc:Work
         rdf:about="">
        <dc:format>image/svg+xml</dc:format>
        <dc:type
           rdf:resource="http://purl.org/dc/dcmitype/StillImage" />
        <dc:title></dc:title>
      </cc:Work>
    </rdf:RDF>
  </metadata>
  <g
     inkscape:label="Calque 1"
     inkscape:groupmode="layer"
     id="layer1">
    <path
       style="fill:#000000;stroke-width:1.02050531"
       d="M 2.1425781 1.8046875 L 2.1425781 51.804688 L 2.1425781 146.0918 L 52.142578 146.0918 L 52.142578 407.51953 L 102.14258 407.51953 L 102.14258 460.37695 L 152.14258 460.37695 L 152.14258 513.23438 L 202.14258 513.23438 L 202.14258 566.0918 L 202.14258 618.94922 L 152.14258 618.94922 L 152.14258 671.80469 L 102.14258 671.80469 L 102.14258 724.66211 L 52.142578 724.66211 L 52.142578 981.80469 L 2.1425781 981.80469 L 2.1425781 1031.8047 L 2.1425781 1076.0918 L 2.1425781 1126.0918 L 792.14258 1126.0918 L 792.14258 1076.0918 L 792.14258 981.80469 L 742.14258 981.80469 L 742.14258 724.66211 L 692.14258 724.66211 L 692.14258 671.80469 L 642.14258 671.80469 L 642.14258 618.94922 L 592.14258 618.94922 L 592.14258 566.0918 L 592.14258 513.23438 L 642.14258 513.23438 L 642.14258 460.37695 L 692.14258 460.37695 L 692.14258 407.51953 L 742.14258 407.51953 L 742.14258 146.0918 L 792.14258 146.0918 L 792.14258 96.091797 L 792.14258 1.8046875 L 52.142578 1.8046875 L 2.1425781 1.8046875 z M 52.142578 51.804688 L 300.71484 51.804688 L 300.71484 96.091797 L 52.142578 96.091797 L 52.142578 51.804688 z M 500.71484 51.804688 L 742.14258 51.804688 L 742.14258 96.091797 L 500.71484 96.091797 L 500.71484 51.804688 z M 152.14258 146.0918 L 642.14258 146.0918 L 642.14258 196.0918 L 642.14258 248.94727 L 642.14258 301.80469 L 642.14258 354.66211 L 592.14258 354.66211 L 592.14258 407.51953 L 542.14258 407.51953 L 542.14258 460.37695 L 492.14258 460.37695 L 492.14258 513.23438 L 442.14258 513.23438 L 442.14258 566.0918 L 442.14258 618.94922 L 492.14258 618.94922 L 492.14258 671.80469 L 542.14258 671.80469 L 542.14258 724.66211 L 592.14258 724.66211 L 592.14258 777.51953 L 642.14258 777.51953 L 642.14258 830.37695 L 642.14258 883.23438 L 642.14258 936.0918 L 642.14258 981.80469 L 152.14258 981.80469 L 152.14258 936.0918 L 152.14258 883.23438 L 152.14258 830.37695 L 152.14258 777.51953 L 202.14258 777.51953 L 202.14258 724.66211 L 252.14258 724.66211 L 252.14258 671.80469 L 302.14258 671.80469 L 302.14258 618.94922 L 352.14258 618.94922 L 352.14258 566.0918 L 352.14258 513.23438 L 302.14258 513.23438 L 302.14258 460.37695 L 252.14258 460.37695 L 252.14258 407.51953 L 202.14258 407.51953 L 202.14258 354.66211 L 152.14258 354.66211 L 152.14258 301.80469 L 152.14258 248.94922 L 152.14258 196.0918 L 152.14258 146.0918 z M 52.142578 1031.8047 L 300.71484 1031.8047 L 300.71484 1076.0918 L 52.142578 1076.0918 L 52.142578 1031.8047 z M 500.71484 1031.8047 L 742.14258 1031.8047 L 742.14258 1076.0918 L 500.71484 1076.0918 L 500.71484 1031.8047 z "
       id="rect78-1"
       transform="scale(0.26458333)" />
    <path
       style="font-style:normal;font-weight:normal;font-size:17.51849174px;line-height:1.25;font-family:sans-serif;letter-spacing:0px;word-spacing:0px;fill:url(#linearGradient2623);fill-opacity:1;stroke:#000000;stroke-width:0.43796226;stroke-opacity:1"
       d="m 165.93039,53.739687 -0.64613,0.90945 2.25498,1.600309 -4.73806,6.677053 -2.255,-1.600312 -0.72168,1.016817 4.09998,2.909514 c -1.21449,0.53937 -2.4403,1.758389 -3.67746,3.661221 -1.2636,1.943497 -1.88381,3.589844 -1.8604,4.938467 0.0286,1.35197 0.73211,2.475952 2.11081,3.372348 1.35814,0.883014 2.65875,1.072652 3.90153,0.568326 1.25113,-0.505915 2.51954,-1.747888 3.8056,-3.725914 1.24755,-1.918831 1.86056,-3.559399 1.83841,-4.921233 -0.0138,-1.363425 -0.71011,-2.493185 -2.08883,-3.389579 -0.79868,-0.519277 -1.57807,-0.79517 -2.3387,-0.832052 l -1.41812,-1.006465 6.37165,-8.978558 -1.12724,-0.799893 c -0.22513,0.276137 -0.46506,0.454657 -0.71943,0.535684 -0.24635,0.08 -0.52033,0.09663 -0.82252,0.04983 -0.24273,-0.03812 -0.55635,-0.156404 -0.9403,-0.355119 -0.3808,-0.203175 -0.7236,-0.413086 -1.02909,-0.629891 z M 49.973912,52.926783 c -0.485244,-0.003 -0.96278,0.09277 -1.432431,0.287445 -1.249201,0.514191 -2.510402,1.750383 -3.783622,3.708679 -1.2636,1.943497 -1.883803,3.589326 -1.860386,4.937951 0.02857,1.351968 0.732086,2.476468 2.1108,3.372861 1.358134,0.883017 2.658746,1.072137 3.90153,0.567811 1.251138,-0.505912 2.519546,-1.747885 3.805596,-3.725912 1.247563,-1.918833 1.860559,-3.558883 1.838412,-4.920719 -0.0138,-1.363422 -0.710113,-2.493699 -2.088826,-3.390094 -0.852051,-0.553976 -1.682333,-0.833064 -2.491073,-0.838022 z m 0.30607,1.565026 c 0.444033,0.01496 0.907837,0.179473 1.391416,0.49388 0.488721,0.317752 0.824799,0.673227 1.008388,1.066288 0.188737,0.396408 0.2493,0.842963 0.18241,1.339849 -0.06495,0.505163 -0.245846,1.054394 -0.543309,1.646997 -0.292318,0.59595 -0.682273,1.268444 -1.169753,2.018221 -0.493895,0.759641 -0.950685,1.389377 -1.370345,1.888495 -0.411308,0.497532 -0.836719,0.887524 -1.27655,1.170011 -0.428273,0.275964 -0.864415,0.406174 -1.308448,0.391172 -0.444033,-0.01496 -0.907837,-0.17947 -1.391416,-0.493877 -0.514446,-0.334477 -0.8631,-0.705038 -1.045421,-1.111308 -0.177176,-0.402929 -0.225474,-0.851895 -0.145087,-1.347023 0.08099,-0.529829 0.261292,-1.072143 0.541449,-1.626871 0.280156,-0.554732 0.670498,-1.216654 1.170807,-1.986161 0.455408,-0.700447 0.904993,-1.324407 1.348372,-1.871265 0.448522,-0.543513 0.878607,-0.940709 1.290844,-1.192011 0.438563,-0.269274 0.877752,-0.39805 1.316643,-0.386397 z m 7.408366,3.600467 -1.194801,0.695792 c 0.15841,0.319131 0.221947,0.611263 0.190603,0.876381 -0.02896,0.257398 -0.127097,0.514334 -0.294601,0.770168 -0.135033,0.205268 -0.372141,0.441433 -0.711771,0.708943 -0.342387,0.262779 -0.675475,0.48852 -0.999152,0.677105 l 0.561886,0.963779 2.388565,-1.3916 4.121947,7.073921 -2.38909,1.392107 0.627831,1.077465 6.211328,-3.619484 -0.627832,-1.077465 -2.342682,1.365434 z m 90.838872,4.817805 -0.35593,7.179933 1.24564,0.06162 0.13385,-2.707651 10.99585,0.544609 0.0683,-1.380938 c -0.35387,-0.04134 -0.63345,-0.147497 -0.83854,-0.318402 -0.19992,-0.164695 -0.36127,-0.386999 -0.48429,-0.666952 -0.0984,-0.225151 -0.1671,-0.553026 -0.20601,-0.983602 -0.0335,-0.430308 -0.0408,-0.832465 -0.0222,-1.206614 l -1.11447,-0.05495 -0.13678,2.761355 -8.17716,-0.404926 0.13669,-2.761872 z m -95.272855,0.140848 -1.00146,0.492046 1.218577,2.481509 -7.348708,3.60966 -1.218567,-2.482024 -1.119154,0.549666 3.169213,6.452961 1.119151,-0.549663 -1.195533,-2.434119 9.881765,-4.853282 -0.609284,-1.241013 c -0.329565,0.13537 -0.62559,0.177967 -0.887814,0.127893 -0.254696,-0.04715 -0.503807,-0.16328 -0.747113,-0.348516 -0.19517,-0.149253 -0.414284,-0.402828 -0.657022,-0.760581 -0.237828,-0.360167 -0.438903,-0.708295 -0.604051,-1.044537 z m 112.514785,3.431712 c 0.44403,0.01496 0.90782,0.179989 1.3914,0.494396 0.48872,0.317752 0.8248,0.67323 1.00839,1.066291 0.18874,0.396406 0.24982,0.842967 0.18293,1.339854 -0.0649,0.505166 -0.24636,1.05387 -0.54382,1.646475 -0.29232,0.595947 -0.68228,1.268961 -1.16976,2.018734 -0.4939,0.759641 -0.95068,1.388863 -1.37034,1.887983 -0.4113,0.497529 -0.83672,0.887521 -1.27655,1.170007 -0.42827,0.275964 -0.86442,0.40669 -1.30845,0.391692 -0.44404,-0.01496 -0.90783,-0.17999 -1.39141,-0.494397 -0.51444,-0.334476 -0.86311,-0.704518 -1.04543,-1.110791 -0.17718,-0.402929 -0.22547,-0.852409 -0.14508,-1.347539 0.081,-0.529829 0.2618,-1.071617 0.54195,-1.626348 0.28017,-0.554728 0.67,-1.217177 1.17031,-1.986684 0.4554,-0.700448 0.90498,-1.323891 1.34836,-1.870749 0.44852,-0.543513 0.87913,-0.941217 1.29137,-1.192519 0.40413,-0.248137 0.80826,-0.371184 1.21267,-0.380767 l 0.0215,0.01532 0.0122,-0.01738 c 0.0232,-1.71e-4 0.0466,-0.0042 0.0699,-0.0036 z m -20.48791,2.568343 -0.66835,1.210415 c 0.29971,0.192643 0.50404,0.410834 0.61317,0.654474 0.10722,0.235791 0.15449,0.506523 0.14198,0.812061 -0.0108,0.245467 -0.0928,0.570142 -0.2471,0.974016 -0.15905,0.401228 -0.32889,0.765529 -0.50994,1.093477 l 0.97673,0.539154 1.33619,-2.420322 7.16718,3.956965 -1.19476,2.164612 c -0.22848,-0.05479 -0.45272,-0.162359 -0.67195,-0.329265 -0.19517,-0.149254 -0.41429,-0.402827 -0.65702,-0.760582 -0.23783,-0.360167 -0.43891,-0.708295 -0.60405,-1.044537 l -1.00147,0.492049 1.21858,2.481505 -7.34819,3.609669 -1.21909,-2.482029 -1.11915,0.549663 3.16922,6.452963 1.11916,-0.550183 -1.19554,-2.433601 9.88176,-4.853283 -0.36375,-0.741581 3.2163,-5.825577 -1.09154,-0.602431 -1.31066,2.373684 z m -55.613446,0.99451 c -1.026532,9.19e-4 -2.237985,0.215235 -3.633913,0.642595 -2.216609,0.678608 -3.748915,1.542203 -4.596895,2.591139 -0.846181,1.054802 -1.028634,2.36867 -0.547232,3.941129 0.474218,1.548989 1.349976,2.529155 2.626555,2.940495 1.117935,0.361753 2.605028,0.303301 4.459788,-0.173476 l -0.611987,1.107922 c 0.299713,0.19264 0.50457,0.41084 0.613697,0.654482 0.107212,0.23579 0.154491,0.50652 0.141983,0.812058 -0.01059,0.24547 -0.09336,0.570136 -0.247624,0.974008 -0.159047,0.40123 -0.328893,0.766048 -0.509956,1.093995 l 0.976741,0.539155 1.33619,-2.420842 7.167693,3.957492 -1.336698,2.420315 1.091521,0.602949 3.431103,-6.214532 0.37553,5.532221 -2.758614,0.187361 0.08414,1.244269 7.172805,-0.487134 -0.0847,-1.243758 -2.70532,0.183536 -0.74557,-10.984254 -1.379313,0.09394 c 2.96e-4,0.356285 -0.07238,0.646392 -0.218107,0.870068 -0.140173,0.217816 -0.34193,0.403697 -0.605567,0.558634 -0.212094,0.124029 -0.52973,0.230648 -0.952797,0.319663 -0.42344,0.08356 -0.822129,0.138074 -1.195878,0.163444 l 0.07583,1.113382 2.758611,-0.187361 0.171784,2.528899 -1.040788,-0.574772 -1.310656,2.373687 -9.532668,-5.263362 c 0.225281,-0.06013 0.452419,-0.122837 0.688328,-0.19506 2.188477,-0.669995 3.711562,-1.533838 4.568998,-2.592087 0.864858,-1.054102 1.056529,-2.367722 0.575126,-3.94018 -0.476015,-1.554855 -1.360474,-2.535262 -2.65393,-2.941435 -0.482938,-0.152963 -1.032323,-0.229138 -1.648246,-0.228581 z m 47.647696,0.772432 -0.66835,1.210415 c 0.29971,0.192641 0.50404,0.410832 0.61317,0.654474 0.10722,0.235791 0.15449,0.506521 0.14198,0.812058 -0.0108,0.245471 -0.0928,0.570145 -0.2471,0.974019 -0.15905,0.401228 -0.32889,0.76553 -0.50994,1.093477 l 0.97672,0.53967 1.3362,-2.420841 7.16718,3.956969 -1.3362,2.420838 1.09154,0.60243 3.47471,-6.293447 -1.09154,-0.60243 -1.31066,2.373684 z m -37.664044,-0.07809 -3.063453,6.503433 1.127768,0.531667 1.155798,-2.453085 9.959621,4.691112 0.58887,-1.25092 c -0.31146,-0.172997 -0.52958,-0.377114 -0.65412,-0.613245 -0.12214,-0.228418 -0.1867,-0.495779 -0.19383,-0.801491 -0.005,-0.245643 0.0563,-0.574962 0.18426,-0.987908 0.13295,-0.410615 0.27948,-0.785134 0.4391,-1.124031 l -1.00925,-0.47557 -1.17825,2.501321 -7.406989,-3.488812 1.178249,-2.501319 z m -43.095725,-0.556352 -0.35592,7.17993 1.245632,0.06163 0.133838,-2.708168 10.995837,0.545124 0.06836,-1.380936 c -0.353876,-0.04134 -0.63345,-0.147497 -0.83854,-0.3184 -0.199917,-0.164695 -0.36127,-0.386999 -0.484296,-0.666954 -0.09836,-0.225152 -0.167101,-0.553026 -0.206001,-0.983603 -0.03344,-0.430306 -0.04072,-0.832465 -0.02218,-1.206613 l -1.114452,-0.05546 -0.136738,2.761872 -8.177157,-0.405441 0.13673,-2.761356 z m 33.637158,1.601998 c 0.132812,0.0055 0.258938,0.01729 0.378287,0.03531 0.509112,0.07515 0.928237,0.258435 1.257221,0.549173 0.330778,0.296606 0.580531,0.720583 0.749379,1.272118 0.170648,0.557402 0.200115,1.045804 0.08848,1.465018 -0.109837,0.425081 -0.349725,0.806517 -0.72005,1.144497 -0.374154,0.345569 -0.865597,0.649882 -1.474145,0.913193 -0.60675,0.26918 -1.33766,0.534858 -2.1928,0.796656 -0.866389,0.265244 -1.620964,0.454467 -2.263165,0.567647 -0.634781,0.117329 -1.211405,0.142999 -1.729975,0.07715 -0.505519,-0.06343 -0.923476,-0.243735 -1.254255,-0.540341 -0.330782,-0.296606 -0.580531,-0.720584 -0.749381,-1.272118 -0.17963,-0.586739 -0.209192,-1.094369 -0.0881,-1.522897 0.122884,-0.42266 0.37433,-0.797918 0.753873,-1.125886 0.402284,-0.354181 0.889017,-0.654069 1.45998,-0.899456 0.570959,-0.24539 1.295122,-0.502438 2.172763,-0.771126 0.79888,-0.244573 1.543718,-0.434052 2.234756,-0.568602 0.519625,-0.09651 0.978695,-0.136724 1.377135,-0.120332 z m 28.153411,1.817024 c -2.31813,0.01196 -4.03444,0.397732 -5.14843,1.158243 -1.11395,0.766648 -1.66654,1.972493 -1.65805,3.616968 0.008,1.619933 0.56476,2.810401 1.66894,3.571732 0.55484,0.38357 1.26569,0.670023 2.13259,0.858842 l -0.45537,1.842167 -7.94787,-1.965296 0.66375,-2.684473 -1.21044,-0.299341 -1.72602,6.978905 1.21043,0.299338 0.65105,-2.632468 10.68743,2.643322 0.33187,-1.342238 c -0.33939,-0.108433 -0.59322,-0.265719 -0.76173,-0.472777 -0.16463,-0.199975 -0.28058,-0.449185 -0.34765,-0.747534 -0.0534,-0.239836 -0.0578,-0.57487 -0.0134,-1.004918 0.0175,-0.151298 0.0405,-0.293584 0.0631,-0.436776 0.58953,0.06488 1.22702,0.10004 1.92628,0.09643 1.15187,-0.0059 2.15586,-0.10824 3.01316,-0.305399 l -0.0993,0.140077 5.86267,4.160596 0.72169,-1.016817 -2.21154,-1.569146 6.37167,-8.978558 -1.12725,-0.799892 c -0.22513,0.276137 -0.46506,0.454656 -0.71943,0.535683 -0.24636,0.08 -0.52085,0.09662 -0.82304,0.04982 -0.24272,-0.03813 -0.55583,-0.156395 -0.93979,-0.355111 -0.38079,-0.203175 -0.7241,-0.413093 -1.0296,-0.629897 l -0.64561,0.909457 2.25499,1.600309 -4.73859,6.677044 -1.59961,-1.135377 c 0.30475,-0.132351 0.58309,-0.281697 0.83131,-0.450747 1.13163,-0.760604 1.69327,-1.963295 1.68478,-3.60777 -0.008,-1.626069 -0.57384,-2.819689 -1.69567,-3.580932 -1.11596,-0.761273 -2.84148,-1.135528 -5.17726,-1.123469 z m -45.591491,-0.421784 -1.001459,0.492049 1.219084,2.482032 -7.348699,3.609145 -1.219087,-2.482032 -1.119151,0.549665 0.505075,1.028019 -0.654926,-0.361044 -1.310137,2.373693 -9.638237,-5.321325 -0.667839,1.210423 c 0.299714,0.192643 0.504052,0.410834 0.613179,0.654474 0.107215,0.235791 0.154491,0.506524 0.141985,0.812061 -0.01059,0.24547 -0.09285,0.570141 -0.247107,0.974016 -0.143743,0.362619 -0.298098,0.690709 -0.45982,0.993469 -0.0073,-0.0067 -0.01352,-0.01326 -0.02088,-0.01996 -1.714414,-1.560334 -3.238787,-2.437799 -4.573552,-2.632061 -1.338895,-0.189725 -2.56155,0.32359 -3.66845,1.539789 -1.090377,1.198051 -1.487342,2.450754 -1.189926,3.758579 0.297637,1.316321 1.319256,2.768585 3.064129,4.356643 1.692657,1.540533 3.212894,2.409921 4.560492,2.607568 1.34782,0.206144 2.575126,-0.299088 3.682026,-1.515291 1.094509,-1.202586 1.486312,-2.463897 1.175844,-3.783601 C 54.312621,83.28328 53.40485,81.94728 51.890592,80.501668 l 0.60316,0.332855 1.3367,-2.420314 7.167186,3.956965 -1.336193,2.420841 1.091532,0.602431 3.306152,-5.988027 2.395567,4.878125 1.119153,-0.549665 -1.195534,-2.434116 9.881767,-4.853283 -0.609284,-1.241012 C 75.321232,75.341838 75.0252,75.384951 74.762973,75.334876 74.508279,75.287726 74.259174,75.17108 74.015867,74.985845 73.8207,74.836589 73.602095,74.583543 73.359356,74.225787 73.121528,73.86562 72.919945,73.516966 72.754798,73.180724 Z m 3.278674,0.339053 -0.645614,0.909458 2.25499,1.600308 -4.738587,6.677045 -2.254991,-1.600312 -0.721696,1.016816 5.862671,4.160597 0.721697,-1.016817 -2.211028,-1.569138 6.371661,-8.978558 -1.12776,-0.799901 c -0.225133,0.276138 -0.464542,0.454665 -0.718911,0.535692 -0.246358,0.08 -0.52085,0.09662 -0.82304,0.04982 -0.242724,-0.03813 -0.555833,-0.156394 -0.939789,-0.35511 -0.38079,-0.203176 -0.724107,-0.413094 -1.029603,-0.629899 z m 42.936127,1.954483 c 0.6013,0.01069 1.16471,0.04234 1.6901,0.09485 0.70057,0.07615 1.26925,0.217416 1.7057,0.423795 0.46595,0.218501 0.81439,0.514411 1.04578,0.887529 0.23143,0.379255 0.34853,0.857144 0.35151,1.433939 0.003,0.58293 -0.10928,1.059119 -0.33682,1.428472 -0.22753,0.375486 -0.56704,0.672113 -1.01896,0.889217 -0.45779,0.223267 -1.01618,0.373083 -1.67476,0.450118 -0.65855,0.08316 -1.43501,0.12736 -2.3293,0.131974 -0.90607,0.0047 -1.68266,-0.0314 -2.33026,-0.107846 -0.64169,-0.07032 -1.20114,-0.211594 -1.67882,-0.423898 -0.46588,-0.206226 -0.81501,-0.498979 -1.04644,-0.878235 -0.23142,-0.379255 -0.34853,-0.857143 -0.35151,-1.433939 -0.003,-0.613609 0.11494,-1.108472 0.35422,-1.484018 0.23933,-0.369411 0.58806,-0.656549 1.04593,-0.86141 0.48719,-0.223419 1.03961,-0.370403 1.65704,-0.441089 0.61742,-0.07069 1.38482,-0.108527 2.30266,-0.113264 0.20886,-0.0011 0.4135,1.88e-4 0.61393,0.0038 z m 17.18039,2.069714 c -0.5906,0.0029 -1.21984,0.137975 -1.88752,0.406004 -1.50904,0.605777 -2.41153,1.570574 -2.70688,2.893741 -0.29754,1.317711 -0.0109,3.060382 0.85932,5.228056 0.8636,2.15129 1.85364,3.604628 2.97052,4.360881 0.79579,0.534485 1.6935,0.724149 2.69209,0.57186 l -1.2911,2.179145 -7.04289,-4.174696 1.40996,-2.378871 -0.95973,-0.568867 c -0.19103,0.322247 -0.41931,0.653734 -0.68466,0.994131 -0.27005,0.337604 -0.50855,0.572826 -0.71482,0.706307 -0.25709,0.165574 -0.51436,0.262365 -0.77197,0.289381 -0.26534,0.02934 -0.55711,-0.0367 -0.87503,-0.19751 l -0.70473,1.18918 9.47041,5.613841 -1.3829,2.332772 1.07294,0.635739 3.66578,-6.184032 -0.84656,-0.501999 c 0.30333,-0.0684 0.6152,-0.165137 0.93639,-0.294075 1.50334,-0.603492 2.40607,-1.558512 2.70799,-2.865302 0.30544,-1.314534 0.0185,-3.066982 -0.86043,-5.256495 -0.85264,-2.123992 -1.84244,-3.568069 -2.96941,-4.332954 -0.63194,-0.434607 -1.32742,-0.649938 -2.08677,-0.646237 z m 22.98045,0.415564 -0.66835,1.210416 c 0.29971,0.192643 0.50405,0.410834 0.61318,0.654474 0.10721,0.23579 0.15449,0.506524 0.14198,0.812061 -0.0108,0.245468 -0.0928,0.570142 -0.24711,0.974015 -0.15904,0.401232 -0.3294,0.765522 -0.51046,1.093469 l 0.97674,0.539155 1.3367,-2.420315 7.16718,3.956966 -1.33618,2.420841 1.09152,0.60243 3.47471,-6.293449 -1.09153,-0.60243 -1.31065,2.373684 z m -23.2044,1.100443 c 0.1139,6.6e-4 0.22405,0.01046 0.33084,0.0294 0.43284,0.07351 0.83376,0.28025 1.20184,0.620674 0.37597,0.343596 0.72055,0.807669 1.03437,1.391775 0.31952,0.581816 0.64605,1.287638 0.97923,2.117578 0.33754,0.840859 0.58957,1.576321 0.75664,2.206651 0.17058,0.622586 0.24537,1.194971 0.22361,1.71725 -0.0205,0.509073 -0.16488,0.941045 -0.43245,1.29572 -0.26757,0.354676 -0.66869,0.639435 -1.20396,0.854316 -0.56946,0.228595 -1.07267,0.300897 -1.5099,0.216476 -0.43154,-0.08671 -0.82692,-0.305116 -1.18581,-0.655571 -0.38693,-0.370896 -0.7268,-0.830454 -1.01958,-1.378625 -0.29279,-0.548167 -0.61017,-1.248324 -0.9521,-2.100105 -0.31125,-0.775337 -0.56304,-1.501539 -0.75553,-2.178725 -0.1868,-0.679473 -0.26445,-1.260431 -0.23305,-1.742203 0.0318,-0.513644 0.17838,-0.946312 0.44025,-1.298699 0.26758,-0.354675 0.6692,-0.639429 1.20448,-0.854308 0.40574,-0.162875 0.77941,-0.243519 1.12112,-0.241607 z m 17.48158,1.609741 c -1.14616,-0.01221 -2.20332,0.513778 -3.17186,1.577956 -1.09038,1.198051 -1.48682,2.450763 -1.18941,3.758587 0.29764,1.316322 1.31874,2.768577 3.06361,4.356632 1.69266,1.540533 3.21291,2.409408 4.5605,2.607053 1.34782,0.206144 2.57512,-0.29857 3.68202,-1.514773 1.09451,-1.202589 1.48631,-2.4639 1.17585,-3.783603 -0.30612,-1.315743 -1.32257,-2.759918 -3.05005,-4.332135 -1.7144,-1.560334 -3.23931,-2.437288 -4.57407,-2.63155 -0.16736,-0.02372 -0.33286,-0.03642 -0.49659,-0.03817 z M 46.304479,79.147066 c 0.225479,0.01229 0.457227,0.05779 0.695077,0.137364 0.509846,0.165329 1.015684,0.431238 1.518003,0.797145 0.50232,0.365906 1.092819,0.857725 1.771621,1.47552 0.617886,0.562355 1.160899,1.10626 1.629144,1.631988 0.464112,0.530262 0.787037,1.019378 0.968607,1.466729 0.195063,0.47623 0.251408,0.929563 0.169164,1.360834 -0.08637,0.43581 -0.323268,0.867411 -0.711508,1.293991 -0.392372,0.431116 -0.797342,0.705302 -1.214856,0.823138 -0.421645,0.122373 -0.87238,0.110744 -1.351989,-0.03536 -0.488087,-0.145528 -1.000657,-0.41301 -1.537566,-0.8021 -0.541038,-0.38455 -1.142201,-0.877677 -1.803599,-1.479631 -0.670101,-0.609877 -1.217761,-1.162383 -1.64271,-1.657004 -0.424729,-0.486123 -0.740838,-0.968724 -0.948736,-1.448336 -0.203328,-0.467152 -0.261834,-0.918918 -0.175461,-1.354727 0.08637,-0.435809 0.323775,-0.86689 0.712015,-1.293468 0.413024,-0.453806 0.834577,-0.737887 1.264924,-0.852338 0.21311,-0.05495 0.432392,-0.07605 0.65787,-0.06374 z m 106.931001,3.164027 c 0.22547,0.01229 0.45721,0.05831 0.69506,0.137879 0.50985,0.16533 1.01569,0.431238 1.518,0.797146 0.50232,0.365905 1.09334,0.857732 1.77214,1.47553 0.61788,0.562353 1.1609,1.10626 1.62914,1.631985 0.46412,0.530265 0.78705,1.018862 0.96862,1.466216 0.19507,0.476228 0.2514,0.930076 0.16916,1.361348 -0.0863,0.435809 -0.32378,0.866887 -0.71202,1.293467 -0.39237,0.431116 -0.79735,0.70582 -1.21486,0.823653 -0.42165,0.122374 -0.87238,0.110228 -1.35198,-0.03588 -0.4881,-0.145527 -1.00067,-0.41249 -1.53758,-0.801581 -0.54104,-0.384553 -1.1422,-0.877677 -1.8036,-1.479634 -0.6701,-0.609876 -1.21776,-1.162382 -1.64271,-1.657004 -0.42473,-0.486122 -0.74083,-0.96924 -0.94873,-1.448851 -0.20332,-0.467153 -0.26184,-0.918403 -0.17546,-1.354211 0.0863,-0.43581 0.32377,-0.866888 0.71201,-1.293468 0.41303,-0.453806 0.83458,-0.737885 1.26492,-0.852339 0.21311,-0.05495 0.4324,-0.07657 0.65789,-0.06425 z m -70.925327,0.28398 c -1.14616,-0.01221 -2.203835,0.51377 -3.172372,1.577946 -1.090377,1.198052 -1.486826,2.450763 -1.18941,3.758587 0.297637,1.316322 1.31874,2.768577 3.063613,4.356635 1.692657,1.540534 3.212894,2.409922 4.560492,2.607568 0.551016,0.08427 1.08168,0.0473 1.592432,-0.10615 -0.08662,0.122959 -0.167081,0.246458 -0.237787,0.371023 -0.66312,1.17852 -0.62919,2.504442 0.101854,3.977514 0.720134,1.451084 1.743448,2.275454 3.069974,2.473414 1.334522,0.20085 3.058481,-0.22275 5.171885,-1.27157 2.050161,-1.017438 3.412223,-2.118172 4.085883,-3.301925 0.681663,-1.180869 0.656643,-2.508151 -0.0744,-3.981225 -0.722863,-1.456587 -1.755087,-2.279588 -3.097422,-2.469711 -1.337066,-0.192734 -3.052125,0.230031 -5.144446,1.268391 -0.388046,0.192575 -0.743202,0.388348 -1.081986,0.585901 0.544832,-0.91582 0.703065,-1.864086 0.472404,-2.844548 -0.306119,-1.315744 -1.323095,-2.75941 -3.050562,-4.331623 -1.714413,-1.560335 -3.238788,-2.437799 -4.573552,-2.632062 -0.167362,-0.02372 -0.33286,-0.03642 -0.496595,-0.03817 z m -18.070319,1.171505 c -0.485245,-0.003 -0.962265,0.09278 -1.431915,0.287453 -1.249199,0.514192 -2.510411,1.750903 -3.783631,3.709196 -1.263599,1.943497 -1.883803,3.589328 -1.860386,4.937951 0.02857,1.351969 0.732094,2.475951 2.110807,3.372347 1.358136,0.883015 2.658739,1.072653 3.901523,0.568326 1.251138,-0.505914 2.519549,-1.747888 3.805598,-3.725913 1.247561,-1.918831 1.86005,-3.559408 1.837903,-4.921244 -0.0138,-1.363422 -0.709606,-2.493175 -2.088317,-3.389571 -0.852052,-0.553975 -1.682842,-0.833587 -2.491582,-0.838545 z m 17.898169,0.470374 c 0.225479,0.01228 0.4567,0.0583 0.69455,0.137873 0.509846,0.165329 1.016211,0.430729 1.51853,0.796634 0.50232,0.365908 1.092816,0.857724 1.771621,1.475522 0.617884,0.562355 1.160899,1.106261 1.629141,1.631988 0.464112,0.530262 0.78704,1.019379 0.968607,1.466729 0.195066,0.47623 0.2514,0.93008 0.169157,1.36135 -0.08637,0.43581 -0.323776,0.866887 -0.712017,1.293468 -0.392371,0.431115 -0.797341,0.705302 -1.214856,0.823137 -0.421644,0.122373 -0.871864,0.110751 -1.351472,-0.03535 -0.488088,-0.145528 -1.000658,-0.413009 -1.537566,-0.802099 -0.541039,-0.38455 -1.142202,-0.877677 -1.803599,-1.479632 -0.670102,-0.609879 -1.217759,-1.162382 -1.642711,-1.657004 -0.424729,-0.486122 -0.741353,-0.968732 -0.949252,-1.448344 -0.203327,-0.467152 -0.261834,-0.918917 -0.175461,-1.354727 0.08637,-0.435811 0.323775,-0.86689 0.712016,-1.293467 0.413024,-0.453807 0.835095,-0.73788 1.265441,-0.852332 0.213108,-0.05495 0.432392,-0.07605 0.657871,-0.06374 z m -17.5921,1.094652 c 0.444033,0.01496 0.90783,0.17999 1.391409,0.494397 0.488724,0.317751 0.824799,0.673226 1.00839,1.066288 0.188735,0.396406 0.249816,0.84297 0.182925,1.339857 -0.06495,0.505165 -0.246356,1.053869 -0.543819,1.646471 -0.292318,0.595951 -0.681764,1.268972 -1.169245,2.018746 -0.493892,0.75964 -0.950677,1.388862 -1.370336,1.887979 -0.411308,0.497533 -0.837235,0.887517 -1.277066,1.170002 -0.428273,0.275965 -0.864423,0.40669 -1.308456,0.391692 -0.444033,-0.01496 -0.90783,-0.179989 -1.391409,-0.494396 -0.514446,-0.334476 -0.862592,-0.704511 -1.044913,-1.110784 -0.177175,-0.402928 -0.225474,-0.851892 -0.145086,-1.347023 0.08099,-0.529828 0.261291,-1.072141 0.541447,-1.626872 0.280157,-0.554727 0.67051,-1.217168 1.170816,-1.986675 0.455411,-0.700449 0.904985,-1.323891 1.348364,-1.870749 0.448525,-0.543513 0.878618,-0.941226 1.290855,-1.192527 0.438561,-0.269275 0.877234,-0.398058 1.316124,-0.386406 z m 55.132487,0.864835 c -1.14616,-0.01221 -2.20332,0.513779 -3.17185,1.577958 -1.09038,1.198048 -1.48684,2.451277 -1.18942,3.759102 0.29764,1.316321 1.31874,2.768578 3.06362,4.356632 1.69265,1.540536 3.21289,2.409408 4.56049,2.607052 1.34783,0.206145 2.57513,-0.299085 3.68203,-1.515287 1.09451,-1.202589 1.4863,-2.463382 1.17583,-3.783088 -0.30612,-1.315743 -1.32256,-2.759918 -3.05003,-4.332134 -1.71442,-1.560334 -3.23932,-2.437288 -4.57408,-2.631551 -0.16736,-0.02372 -0.33285,-0.03694 -0.49659,-0.03869 z m 23.96681,0.699557 -0.41766,1.175009 2.60497,0.926093 -2.74261,7.714146 -2.60548,-0.926101 -0.37389,1.051132 c 0.35296,0.125507 0.72231,0.285739 1.10737,0.480705 0.38323,0.200118 0.65994,0.388552 0.83059,0.565321 0.21191,0.220466 0.35604,0.454199 0.43207,0.701807 0.0798,0.254755 0.0714,0.553909 -0.0253,0.896821 l 1.30249,0.463049 3.68866,-10.373072 2.55458,0.908777 0.41766,-1.175013 z m -24.13896,0.942323 c 0.22548,0.01229 0.45722,0.05831 0.69507,0.13788 0.50984,0.165329 1.01569,0.430721 1.51801,0.796629 0.50233,0.365906 1.09281,0.85824 1.77161,1.476039 0.61789,0.562355 1.16142,1.106267 1.62966,1.631992 0.46412,0.530265 0.78654,1.018854 0.96811,1.466208 0.19505,0.476227 0.25191,0.930084 0.16966,1.361356 -0.0863,0.435812 -0.32377,0.86689 -0.71202,1.293467 -0.39236,0.431118 -0.79735,0.70582 -1.21486,0.823654 -0.42164,0.122373 -0.87236,0.110227 -1.35197,-0.03588 -0.48809,-0.145529 -1.00067,-0.412491 -1.53758,-0.801582 -0.54105,-0.384552 -1.14219,-0.878193 -1.80359,-1.480149 -0.67011,-0.609877 -1.21777,-1.161867 -1.64272,-1.656487 -0.42473,-0.486124 -0.74083,-0.969239 -0.94873,-1.448854 -0.20333,-0.467152 -0.26184,-0.918399 -0.17547,-1.35421 0.0863,-0.43581 0.32377,-0.866887 0.71202,-1.293465 0.41302,-0.453807 0.83457,-0.737889 1.26492,-0.852342 0.21311,-0.05495 0.43241,-0.07657 0.65788,-0.06425 z m -47.319204,-0.156471 -0.417664,1.17501 2.604965,0.926093 -2.742608,7.714146 -2.605481,-0.926102 -0.373885,1.051132 c 0.35296,0.125507 0.722308,0.285739 1.107366,0.480706 0.383227,0.200117 0.659942,0.388547 0.830588,0.565325 0.211908,0.22046 0.356031,0.454715 0.432069,0.702319 0.0798,0.254753 0.07147,0.553389 -0.02522,0.896303 l 1.302482,0.46304 3.688658,-10.37306 2.554583,0.908774 0.417661,-1.175011 z m 39.994544,2.678071 c -0.26266,0.267097 -0.56369,0.534173 -0.90287,0.801081 -0.34307,0.263076 -0.63054,0.43469 -0.86278,0.514866 -0.28928,0.09915 -0.56252,0.131363 -0.8191,0.09588 -0.26465,-0.03508 -0.53198,-0.168751 -0.80212,-0.401048 l -0.9693,0.985598 7.84967,7.719159 -1.90129,1.933 0.88937,0.87478 5.04022,-5.126041 -0.88887,-0.874248 -1.93858,1.971194 -5.83775,-5.740149 1.9386,-1.971711 z m -16.480054,1.87467 c 0.514555,-0.0088 0.957819,0.103561 1.329756,0.336844 0.374665,0.238782 0.690478,0.616368 0.94689,1.133042 0.259139,0.522173 0.367587,0.999159 0.325711,1.430958 -0.03915,0.437294 -0.21386,0.852979 -0.524203,1.246752 -0.312886,0.401886 -0.748019,0.782238 -1.305564,1.141136 -0.554815,0.364391 -1.232705,0.745242 -2.033798,1.142803 -0.811632,0.402791 -1.525373,0.71248 -2.14057,0.928731 -0.6072,0.219134 -1.171633,0.338347 -1.694,0.357829 -0.509102,0.01974 -0.951087,-0.08971 -1.325752,-0.328511 -0.374665,-0.238778 -0.69047,-0.616882 -0.946881,-1.13356 -0.272779,-0.549655 -0.384341,-1.04542 -0.334652,-1.487946 0.05242,-0.437031 0.239629,-0.848389 0.560698,-1.233786 0.339239,-0.414963 0.770052,-0.79021 1.293432,-1.125301 0.523379,-0.335089 1.196201,-0.706596 2.018374,-1.114616 0.748386,-0.371402 1.452703,-0.679745 2.112606,-0.925034 0.66263,-0.23979 1.235203,-0.362676 1.717953,-0.369341 z m 9.976334,0.866858 c -0.48525,-0.003 -0.96226,0.09278 -1.43192,0.287452 -1.24919,0.514193 -2.5104,1.750385 -3.78362,3.708681 -1.263597,1.9435 -1.883808,3.58984 -1.860391,4.93847 0.02857,1.35197 0.732094,2.47594 2.110811,3.37234 1.35814,0.88302 2.65873,1.07266 3.90152,0.56833 1.25114,-0.50591 2.51955,-1.74789 3.80559,-3.72592 1.24757,-1.91882 1.86058,-3.559393 1.83843,-4.921226 -0.0138,-1.363426 -0.71013,-2.493185 -2.08884,-3.389579 -0.85205,-0.553975 -1.68284,-0.83359 -2.49158,-0.838548 z m 47.49301,0.782444 c -0.48478,-0.02158 -0.96566,0.05599 -1.44244,0.232506 -1.268,0.465914 -2.57557,1.652751 -3.92295,3.560783 -1.33719,1.893621 -2.02008,3.51468 -2.04838,4.86322 -0.0229,1.35206 0.63653,2.50234 1.97986,3.45094 1.32328,0.93444 2.61579,1.17361 3.877,0.7173 1.26961,-0.45755 2.58448,-1.65022 3.94543,-3.57748 1.32022,-1.86959 1.99583,-3.485337 2.02592,-4.847019 0.0385,-1.362951 -0.61407,-2.518539 -1.9574,-3.46714 -0.83018,-0.58624 -1.64908,-0.897144 -2.45704,-0.93311 z m -47.18694,0.782577 c 0.44403,0.01496 0.90783,0.179989 1.39141,0.494397 0.48872,0.317752 0.82532,0.673237 1.00891,1.066298 0.18873,0.396407 0.24929,0.842959 0.18241,1.339846 -0.0649,0.505167 -0.24585,1.053879 -0.54331,1.646485 -0.29232,0.595954 -0.68228,1.268956 -1.16976,2.018736 -0.49389,0.75964 -0.95068,1.38886 -1.37034,1.88798 -0.41131,0.49753 -0.83723,0.88751 -1.27706,1.17 -0.42827,0.27597 -0.86443,0.4067 -1.30846,0.39169 -0.44403,-0.0149 -0.90782,-0.17998 -1.39141,-0.49439 -0.51444,-0.33448 -0.86259,-0.70452 -1.04491,-1.11079 -0.17718,-0.40293 -0.22547,-0.85241 -0.14508,-1.34753 0.081,-0.52983 0.26128,-1.07163 0.54144,-1.62636 0.28016,-0.554728 0.67051,-1.217166 1.17082,-1.98668 0.45541,-0.700449 0.90498,-1.323891 1.34837,-1.870749 0.44852,-0.543514 0.8786,-0.941226 1.29084,-1.192527 0.43857,-0.269275 0.87724,-0.398059 1.31613,-0.386406 z m 47.43237,0.792888 c 0.44313,0.03201 0.90031,0.214601 1.37147,0.54732 0.47618,0.336259 0.7986,0.704081 0.96698,1.103894 0.1734,0.403354 0.21704,0.852333 0.13115,1.346291 -0.0843,0.502303 -0.28657,1.043553 -0.60653,1.624319 -0.31496,0.5843 -0.73018,1.24154 -1.24605,1.97208 -0.52266,0.74014 -1.00338,1.35201 -1.44187,1.83467 -0.43008,0.48139 -0.86988,0.8543 -1.32022,1.11972 -0.43854,0.25933 -0.87953,0.37335 -1.32266,0.34134 -0.44314,-0.032 -0.9003,-0.2146 -1.37148,-0.54732 -0.50124,-0.35396 -0.8353,-0.73747 -1.00191,-1.15044 -0.16159,-0.40942 -0.19265,-0.8597 -0.0933,-1.35138 0.10124,-0.52634 0.30242,-1.06115 0.60364,-1.60473 0.30123,-0.54357 0.71663,-1.190275 1.24608,-1.94003 0.48193,-0.68247 0.95484,-1.288521 1.41886,-1.817977 0.46903,-0.525914 0.9145,-0.906904 1.33607,-1.142213 0.44857,-0.252259 0.89169,-0.36402 1.32981,-0.335544 z m -96.619384,-0.180239 -0.668352,1.210419 c 0.299712,0.192639 0.504052,0.410831 0.613178,0.654473 0.107214,0.235791 0.155009,0.506529 0.1425,0.812066 -0.01059,0.245471 -0.09336,0.570141 -0.24762,0.974006 -0.15905,0.401239 -0.328897,0.766048 -0.50996,1.093999 l 0.976741,0.53916 1.33619,-2.420847 7.167693,3.957497 -1.336697,2.42031 1.091521,0.60295 3.474704,-6.293445 -1.09152,-0.602955 -1.310654,2.37369 z m 25.925406,1.11279 c -1.25254,-0.034 -2.793896,0.403518 -4.624677,1.312084 -2.076515,1.030512 -3.447995,2.132083 -4.113842,3.305109 -0.663119,1.17851 -0.629187,2.50443 0.101857,3.97751 0.720132,1.45109 1.743445,2.27545 3.069971,2.47342 1.334522,0.20084 3.05849,-0.22328 5.171894,-1.2721 2.050163,-1.01744 3.412214,-2.11766 4.085875,-3.3014 0.681658,-1.18087 0.657154,-2.50814 -0.07389,-3.981225 -0.722861,-1.456583 -1.755602,-2.279593 -3.097937,-2.469712 -0.167135,-0.0241 -0.340317,-0.03883 -0.519251,-0.04369 z m 49.649278,0.811122 -0.66836,1.210415 c 0.29972,0.192641 0.50405,0.410832 0.61318,0.654474 0.10721,0.235787 0.15449,0.50652 0.14198,0.812053 -0.0108,0.245469 -0.0928,0.570139 -0.2471,0.974019 -0.15904,0.40123 -0.32888,0.76553 -0.50995,1.09348 l 0.97622,0.53966 1.33671,-2.42083 7.16718,3.95697 -1.33619,2.42083 1.09153,0.60244 3.47471,-6.29345 -1.09153,-0.60243 -1.31066,2.37368 z m -49.612876,0.879982 c 0.514558,-0.0088 0.957828,0.103041 1.329767,0.336329 0.374665,0.238776 0.689954,0.616872 0.946363,1.133545 0.259139,0.522175 0.368107,0.999165 0.32623,1.430975 -0.03915,0.43728 -0.214369,0.85245 -0.524714,1.24622 -0.312886,0.40189 -0.748026,0.78275 -1.305569,1.14165 -0.554818,0.36439 -1.232706,0.74525 -2.033797,1.14281 -0.811632,0.40278 -1.52485,0.71197 -2.14005,0.92822 -0.6072,0.21914 -1.172153,0.33886 -1.694523,0.35833 -0.509102,0.0197 -0.951086,-0.0897 -1.325752,-0.32851 -0.374666,-0.23878 -0.689955,-0.61687 -0.946363,-1.13355 -0.272779,-0.54966 -0.384343,-1.04542 -0.334654,-1.48794 0.05242,-0.43704 0.239112,-0.8484 0.560184,-1.2338 0.339237,-0.41496 0.770568,-0.79019 1.293946,-1.12529 0.523381,-0.33509 1.196202,-0.706591 2.018374,-1.114616 0.748388,-0.371401 1.452188,-0.679754 2.112092,-0.925037 0.662631,-0.239792 1.235719,-0.362671 1.718466,-0.369336 z m 39.491406,1.190107 -1.00094,0.492054 1.21857,2.481498 -7.3487,3.60967 -1.21857,-2.48203 -1.11967,0.54966 3.16973,6.45297 1.11915,-0.55018 -1.19553,-2.4336 9.88177,-4.85329 -0.60929,-1.24101 c -0.32956,0.13538 -0.62559,0.17797 -0.88781,0.1279 -0.2547,-0.0471 -0.50381,-0.16328 -0.74712,-0.34852 -0.19517,-0.14925 -0.41429,-0.40282 -0.65702,-0.76058 -0.23783,-0.360164 -0.43942,-0.7083 -0.60457,-1.044542 z m 5.52797,1.639502 -0.66835,1.20991 c 0.29971,0.19264 0.50405,0.41083 0.61318,0.65447 0.10722,0.2358 0.15449,0.50652 0.14198,0.81206 -0.0108,0.24546 -0.0928,0.57015 -0.2471,0.97402 -0.15905,0.40123 -0.32942,0.76603 -0.51047,1.09398 l 0.97673,0.53916 1.33671,-2.42084 7.16718,3.95749 -1.33619,2.42032 1.09153,0.60295 3.4747,-6.29344 -1.09152,-0.60296 -1.31066,2.37369 z m -32.773603,0.20784 -1.001452,0.49153 1.218568,2.48202 -7.348183,3.60915 -1.219093,-2.48151 -1.119153,0.54967 3.169222,6.45244 1.119151,-0.54966 -1.195541,-2.4336 9.881773,-4.8538 -0.609292,-1.2405 c -0.329566,0.13538 -0.62559,0.17797 -0.887815,0.1279 -0.254696,-0.0471 -0.503806,-0.16328 -0.747113,-0.34852 -0.195171,-0.14926 -0.414283,-0.40283 -0.657022,-0.76059 -0.237827,-0.36015 -0.438903,-0.70829 -0.60405,-1.04453 z m 30.050643,4.06042 c -1.14615,-0.0127 -2.20332,0.51378 -3.17185,1.57795 -1.09038,1.19806 -1.48683,2.45076 -1.18941,3.75859 0.29763,1.31632 1.31874,2.76858 3.06361,4.35664 1.69265,1.54053 3.21289,2.40992 4.56049,2.60757 1.34782,0.20614 2.57513,-0.29909 3.68203,-1.51529 1.09451,-1.20259 1.48682,-2.46389 1.17636,-3.7836 -0.30612,-1.31575 -1.3231,-2.75941 -3.05056,-4.33163 -1.71442,-1.56033 -3.23879,-2.43779 -4.57356,-2.63205 -0.16736,-0.0237 -0.33337,-0.0365 -0.49711,-0.0382 z m -54.798923,-0.24311 -0.667839,1.21043 c 0.299714,0.19264 0.504052,0.41084 0.61318,0.65447 0.107214,0.2358 0.154491,0.50653 0.141985,0.81206 -0.01059,0.24548 -0.09285,0.57015 -0.247108,0.97402 -0.15905,0.40123 -0.329403,0.76552 -0.510464,1.09346 l 0.976738,0.53916 1.3367,-2.42031 7.167186,3.95696 -1.336192,2.42084 1.091531,0.60243 3.474705,-6.29345 -1.092048,-0.60243 -1.310137,2.37369 z m 26.828558,0.66109 -0.645614,0.90945 2.25499,1.60032 -4.738069,6.67705 -2.25499,-1.60031 -0.721696,1.01681 5.862668,4.16059 0.721697,-1.01681 -2.211544,-1.56914 6.371653,-8.97856 -1.12723,-0.79989 c -0.22514,0.27613 -0.46506,0.45466 -0.719433,0.53568 -0.246355,0.08 -0.520332,0.0966 -0.822524,0.0498 -0.24272,-0.0382 -0.556347,-0.1564 -0.940304,-0.35512 -0.380791,-0.20316 -0.724107,-0.41308 -1.029603,-0.62989 z m 27.798215,1.2239 c 0.22547,0.0125 0.45722,0.0578 0.69507,0.13736 0.50985,0.16534 1.01621,0.43125 1.51853,0.79716 0.50231,0.3659 1.09281,0.85773 1.77162,1.47552 0.61789,0.56235 1.1609,1.10626 1.62914,1.63198 0.46411,0.53027 0.78703,1.01938 0.9686,1.46673 0.19507,0.47623 0.25141,0.92957 0.16917,1.36084 -0.0863,0.43581 -0.32378,0.8674 -0.71203,1.29398 -0.39237,0.43112 -0.79733,0.70531 -1.21485,0.82314 -0.42164,0.12237 -0.87238,0.11075 -1.35199,-0.0354 -0.48809,-0.14553 -1.00014,-0.413 -1.53705,-0.8021 -0.54104,-0.38454 -1.14271,-0.87768 -1.80411,-1.47964 -0.67011,-0.60987 -1.21725,-1.16237 -1.6422,-1.65699 -0.42473,-0.48613 -0.74135,-0.96874 -0.94925,-1.44835 -0.20333,-0.46714 -0.26184,-0.91891 -0.17546,-1.35472 0.0863,-0.43581 0.32377,-0.86689 0.71202,-1.29347 0.41302,-0.4538 0.83457,-0.73789 1.26492,-0.85234 0.21311,-0.0549 0.43239,-0.076 0.65787,-0.0637 z m 14.129,0.93568 -0.64562,0.90997 2.25499,1.60031 -4.73858,6.67653 -2.25499,-1.5998 -0.7217,1.01682 5.86267,4.1606 0.7217,-1.01734 -2.21103,-1.56914 6.37165,-8.97804 -1.12775,-0.7999 c -0.22513,0.27614 -0.46454,0.45467 -0.71891,0.5357 -0.24636,0.08 -0.52085,0.0966 -0.82304,0.0498 -0.24273,-0.0382 -0.55583,-0.15639 -0.93979,-0.3551 -0.38079,-0.20318 -0.7241,-0.41362 -1.0296,-0.63042 z m -35.5269,-0.41717 -0.66835,1.21041 c 0.29972,0.19264 0.50458,0.41084 0.61371,0.65448 0.1072,0.23579 0.15449,0.50652 0.14198,0.81206 -0.0108,0.24547 -0.0933,0.57014 -0.24763,0.97401 -0.15904,0.40123 -0.32888,0.76553 -0.50995,1.09348 l 0.97674,0.53967 1.33618,-2.42084 7.16771,3.95697 -1.33671,2.42084 1.09153,0.60243 2.58516,-4.6823 1.71677,0.61055 -2.74262,7.71414 -2.60546,-0.92661 -0.37339,1.05165 c 0.35297,0.1255 0.7218,0.28573 1.10686,0.48069 0.38322,0.20013 0.65994,0.38855 0.83058,0.56532 0.21191,0.22047 0.35604,0.45421 0.43208,0.70181 0.0798,0.25475 0.0714,0.55391 -0.0253,0.89683 l 1.30249,0.46304 3.68865,-10.37307 2.55459,0.90826 0.41766,-1.17449 -5.69206,-2.02399 0.27862,-0.50528 -1.09152,-0.60244 -1.31066,2.3737 z m -18.309237,4.92772 c -0.590393,-0.0161 -1.223547,0.0989 -1.899506,0.34534 -1.527753,0.55691 -2.460755,1.49201 -2.798543,2.80499 -0.339799,1.30745 -0.109504,3.05828 0.690456,5.25284 0.793919,2.17796 1.737043,3.66301 2.829006,4.45482 1.097727,0.7897 2.418924,0.90303 3.963973,0.33982 1.521988,-0.5548 2.454799,-1.48068 2.798627,-2.77707 0.139214,-0.52229 0.181839,-1.12105 0.135674,-1.78975 l 1.51271,0.53762 -2.742608,7.71414 -2.605473,-0.92661 -0.373885,1.05114 c 0.35296,0.1255 0.722307,0.28573 1.107366,0.48069 0.383227,0.20013 0.659934,0.38908 0.83058,0.56584 0.211908,0.22046 0.356039,0.4542 0.432076,0.70181 0.07981,0.25476 0.07147,0.55339 -0.02522,0.89631 l 1.302474,0.46356 3.688658,-10.37307 2.333058,0.82938 c 0.08993,0.45052 0.252879,0.91631 0.492117,1.39838 0.720132,1.45109 1.743438,2.27597 3.069964,2.47394 1.334514,0.20085 3.058484,-0.22329 5.171894,-1.2721 2.05016,-1.01744 3.41222,-2.11817 4.08588,-3.30193 0.68166,-1.18086 0.65715,-2.50762 -0.0739,-3.98069 -0.72286,-1.45658 -1.75559,-2.28012 -3.09794,-2.47024 -1.33706,-0.19273 -3.0516,0.23004 -5.14393,1.2684 -2.076507,1.03052 -3.447987,2.13208 -4.113834,3.30511 -0.223409,0.39705 -0.365422,0.81151 -0.430586,1.242 l -5.628313,-2.00181 c -0.141118,-0.64674 -0.343309,-1.3412 -0.617312,-2.09287 -0.783842,-2.15033 -1.726647,-3.62615 -2.828402,-4.42691 -0.617629,-0.45472 -1.305997,-0.69235 -2.06507,-0.71308 z m -0.272413,1.50802 c 0.113814,0.005 0.223506,0.0179 0.329631,0.0402 0.430256,0.0874 0.824162,0.30702 1.181098,0.65912 0.364716,0.35551 0.694559,0.83025 0.989421,1.42415 0.300629,0.5918 0.603735,1.30781 0.910018,2.14803 0.310313,0.8513 0.539293,1.59447 0.685998,2.22985 0.150458,0.62775 0.206257,1.20231 0.167693,1.72363 -0.03682,0.50815 -0.194717,0.93524 -0.473568,1.28113 -0.278853,0.34588 -0.689351,0.61759 -1.231271,0.81513 -0.576511,0.21015 -1.08209,0.26624 -1.516378,0.16779 -0.428522,-0.10053 -0.816092,-0.33165 -1.163513,-0.69347 -0.374789,-0.38315 -0.699644,-0.8537 -0.974637,-1.411 -0.274994,-0.55731 -0.570118,-1.26721 -0.88446,-2.12955 -0.286132,-0.78496 -0.514275,-1.5189 -0.684882,-2.20193 -0.16484,-0.68514 -0.224028,-1.26807 -0.177126,-1.74857 0.04836,-0.51236 0.209316,-0.94032 0.482403,-1.2841 0.27885,-0.34588 0.689349,-0.6176 1.231272,-0.81514 0.410762,-0.14973 0.786832,-0.21822 1.128301,-0.20531 z m 36.9708,1.561 c -1.14615,-0.0127 -2.20331,0.51378 -3.17185,1.57796 -1.09038,1.19805 -1.48684,2.45127 -1.18942,3.7591 0.29764,1.31632 1.31874,2.76858 3.06361,4.35664 1.69266,1.54053 3.2129,2.4094 4.56051,2.60705 0.0238,0.003 0.0474,0.006 0.0712,0.009 l -1.0044,1.81921 -9.63773,-5.32131 -0.66835,1.2104 c 0.29971,0.19265 0.50406,0.41084 0.61318,0.65448 0.10721,0.23579 0.15502,0.50653 0.1425,0.81207 -0.0108,0.24547 -0.0933,0.57013 -0.24761,0.97401 -0.081,0.20419 -0.16476,0.39801 -0.25142,0.58323 -0.5975,-0.36362 -1.33018,-0.57856 -2.20055,-0.64127 -1.62189,-0.11688 -2.85523,0.35485 -3.70063,1.41473 -0.84497,1.05401 -1.35144,2.74576 -1.51934,5.07553 -0.16661,2.31216 0.0862,4.05311 0.75863,5.22236 0.67857,1.16969 1.83812,1.8137 3.47837,1.9319 1.61576,0.11647 2.84577,-0.3468 3.68989,-1.38907 0.85066,-1.04769 1.36049,-2.74796 1.53007,-5.1012 0.16451,-2.28282 -0.0922,-4.01527 -0.76987,-5.19669 -0.11452,-0.2025 -0.24401,-0.38812 -0.38673,-0.55951 l 1.17454,-2.1277 7.16771,3.95697 -1.33671,2.42083 1.09153,0.60244 3.4747,-6.29346 -0.16193,-0.0893 c 0.84508,-0.17862 1.63698,-0.67139 2.37498,-1.48226 1.09451,-1.20259 1.48631,-2.4639 1.17584,-3.7836 -0.30612,-1.31575 -1.32257,-2.75992 -3.05004,-4.33214 -1.71441,-1.56033 -3.23931,-2.43728 -4.57407,-2.63155 -0.16737,-0.0237 -0.33285,-0.0369 -0.4966,-0.0387 z m -0.17215,1.64188 c 0.22547,0.0125 0.45722,0.0583 0.69507,0.13788 0.50985,0.16533 1.01569,0.43072 1.51802,0.79663 0.50231,0.3659 1.0928,0.85823 1.7716,1.47604 0.61789,0.56235 1.16142,1.10626 1.62966,1.63199 0.46411,0.53026 0.78653,1.01885 0.9681,1.46621 0.19507,0.47622 0.2514,0.93008 0.16916,1.36135 -0.0863,0.43581 -0.32326,0.8669 -0.7115,1.29347 -0.39238,0.43112 -0.79735,0.70582 -1.21487,0.82366 -0.42164,0.12237 -0.87237,0.11022 -1.35198,-0.0359 -0.48809,-0.14552 -1.00066,-0.41248 -1.53757,-0.80158 -0.54104,-0.38455 -1.14219,-0.87819 -1.80359,-1.48015 -0.6701,-0.60988 -1.21777,-1.16186 -1.64271,-1.65648 -0.42474,-0.48613 -0.74084,-0.96924 -0.94874,-1.44886 -0.20333,-0.46715 -0.26183,-0.91839 -0.17547,-1.35421 0.0863,-0.43581 0.32378,-0.86688 0.71202,-1.29346 0.41302,-0.45381 0.83458,-0.73789 1.26492,-0.85234 0.21311,-0.0549 0.4324,-0.0765 0.65788,-0.0643 z m -16.18164,0.35569 c 0.51457,-0.009 0.95783,0.10351 1.32977,0.33683 0.37466,0.23879 0.68996,0.61636 0.94636,1.13304 0.25915,0.52217 0.36811,0.99916 0.32623,1.43096 -0.0392,0.4373 -0.21385,0.85299 -0.5242,1.24676 -0.31289,0.40188 -0.74854,0.78223 -1.30608,1.14113 -0.55481,0.36439 -1.23271,0.74524 -2.0338,1.1428 -0.81163,0.40279 -1.52486,0.71248 -2.14005,0.92875 -0.6072,0.21912 -1.17215,0.33833 -1.69452,0.35781 -0.509098,0.0197 -0.951084,-0.0897 -1.325748,-0.32852 -0.374665,-0.23878 -0.689962,-0.61636 -0.946373,-1.13303 -0.272776,-0.54965 -0.384333,-1.04593 -0.334644,-1.48846 0.05242,-0.43703 0.239113,-0.8484 0.560182,-1.23379 0.339239,-0.41497 0.770562,-0.78969 1.29394,-1.12478 0.523383,-0.3351 1.196203,-0.7066 2.018373,-1.11461 0.74839,-0.37142 1.4527,-0.67975 2.11261,-0.92504 0.66263,-0.23979 1.23521,-0.36319 1.71795,-0.36985 z m -8.477065,10.174 c -0.191023,0.32224 -0.41929,0.65322 -0.684644,0.99361 -0.27006,0.3376 -0.508046,0.57336 -0.714322,0.70684 -0.257091,0.16556 -0.514858,0.26183 -0.772469,0.28884 -0.265345,0.0293 -0.556598,-0.0362 -0.874524,-0.19698 l -0.70524,1.18918 9.470404,5.61384 -1.38238,2.33226 1.07242,0.63573 3.66579,-6.18403 -1.07241,-0.63573 -1.40996,2.37836 -7.042882,-4.17471 1.409956,-2.37835 z m 14.391525,1.67311 c 0.13262,-0.005 0.27054,-0.002 0.41437,0.008 0.58142,0.0419 1.04763,0.19059 1.39835,0.44593 0.35685,0.25576 0.62594,0.61707 0.80759,1.08438 0.18734,0.47361 0.29437,1.04171 0.32045,1.70427 0.0322,0.663 0.0159,1.44072 -0.0484,2.33272 -0.0651,0.90373 -0.16035,1.67529 -0.28644,2.31509 -0.11953,0.63436 -0.30353,1.18127 -0.552,1.64118 -0.2415,0.44861 -0.56026,0.77394 -0.95621,0.97546 -0.39596,0.20153 -0.88172,0.28149 -1.45703,0.24003 -0.61203,-0.0441 -1.09629,-0.19991 -1.45229,-0.46742 -0.34988,-0.26707 -0.60928,-0.63644 -0.77826,-1.10874 -0.18523,-0.50295 -0.28903,-1.06501 -0.31196,-1.68605 -0.0229,-0.62104 -0.001,-1.38961 0.0645,-2.30508 0.0601,-0.83332 0.15194,-1.59636 0.27571,-2.28941 0.12989,-0.69262 0.31458,-1.24876 0.55397,-1.66802 0.25373,-0.44774 0.57515,-0.77234 0.96497,-0.9743 0.29698,-0.15115 0.64482,-0.23404 1.04267,-0.2485 z m -8.01006,11.89242 c -0.48525,-0.002 -0.96279,0.0933 -1.43244,0.28796 -1.2492,0.5142 -2.510404,1.7504 -3.783625,3.70869 -1.263596,1.9435 -1.883802,3.58932 -1.860382,4.93794 0.02055,0.97289 0.392687,1.82715 1.112382,2.56412 l -1.209116,0.48522 c 0.110168,0.33882 0.130276,0.63681 0.0606,0.89453 -0.06619,0.25042 -0.200868,0.49019 -0.403897,0.71886 -0.163527,0.18338 -0.43271,0.38227 -0.807728,0.59737 -0.377051,0.21004 -0.739511,0.38496 -1.087233,0.52432 l 0.415031,1.03541 2.566433,-1.02862 3.046058,7.59996 -2.56695,1.02863 0.464318,1.15711 6.672722,-2.67433 -0.4638,-1.1571 -2.51702,1.00871 -4.027907,-10.0499 c 0.24902,0.2352 0.533678,0.45843 0.856903,0.66858 1.358137,0.88302 2.658754,1.07214 3.901544,0.56781 1.25113,-0.50591 2.51954,-1.74788 3.80559,-3.72591 1.24756,-1.91883 1.86056,-3.55889 1.83841,-4.92072 -0.0138,-1.36342 -0.71011,-2.4937 -2.08883,-3.39009 -0.85204,-0.55398 -1.68232,-0.83358 -2.49106,-0.83855 z m 0.30606,1.56555 c 0.44403,0.0149 0.90784,0.17947 1.39141,0.49388 0.48873,0.31775 0.82481,0.67323 1.0084,1.06629 0.18873,0.3964 0.24982,0.84297 0.18292,1.33986 -0.0649,0.50515 -0.24636,1.05439 -0.54382,1.64698 -0.29232,0.59596 -0.68228,1.26845 -1.16975,2.01823 -0.4939,0.75964 -0.95069,1.38938 -1.37035,1.88849 -0.41131,0.49754 -0.83672,0.88752 -1.27655,1.17001 -0.42828,0.27596 -0.86441,0.40617 -1.30845,0.39117 -0.44404,-0.0149 -0.907837,-0.17947 -1.391415,-0.49388 -0.514446,-0.33447 -0.863103,-0.70504 -1.045421,-1.1113 -0.177176,-0.40293 -0.225475,-0.8519 -0.14509,-1.34702 0.08099,-0.52984 0.26181,-1.07214 0.541966,-1.62686 0.280158,-0.55474 0.669983,-1.21667 1.170292,-1.98618 0.455408,-0.70045 0.904998,-1.32441 1.348368,-1.87126 0.44852,-0.54352 0.87913,-0.9407 1.29136,-1.192 0.43856,-0.26928 0.87724,-0.39807 1.31613,-0.38641 z m 5.36166,3.07062 -0.41767,1.17501 2.60496,0.92661 -2.74261,7.71363 -2.60547,-0.9261 -0.3739,1.05113 c 0.35297,0.12551 0.72232,0.28574 1.10738,0.4807 0.38322,0.20013 0.65994,0.38856 0.83058,0.56532 0.21191,0.22047 0.35603,0.45472 0.43208,0.70233 0.0798,0.25476 0.0714,0.55339 -0.0253,0.8963 l 1.30249,0.46305 3.68812,-10.37256 2.55512,0.90827 0.41766,-1.17502 z m 1.93745,11.51381 -0.64562,0.90997 2.25498,1.60032 -4.73857,6.67652 -2.25448,-1.6003 -0.7217,1.01682 5.86216,4.16059 0.7217,-1.01682 -2.21102,-1.56914 6.37164,-8.97804 -1.12723,-0.80041 c -0.22513,0.27613 -0.46506,0.45466 -0.71943,0.53569 -0.24635,0.08 -0.52084,0.0966 -0.82304,0.0498 -0.24272,-0.0382 -0.55583,-0.1564 -0.93978,-0.35512 -0.3808,-0.20317 -0.72412,-0.41309 -1.02961,-0.6299 z m -1.43646,14.32852 c -0.19103,0.32224 -0.4193,0.65373 -0.68466,0.99413 -0.27005,0.3376 -0.50804,0.57335 -0.71431,0.70683 -0.2571,0.16557 -0.51487,0.26184 -0.77248,0.28886 -0.26534,0.0293 -0.55659,-0.0367 -0.87451,-0.19751 l -0.70525,1.18969 9.47041,5.61333 -1.38238,2.33278 1.07241,0.63572 3.66579,-6.18403 -1.07241,-0.63572 -1.40995,2.37835 -7.04289,-4.1747 1.40996,-2.37836 z m -3.70462,11.2721 c -1.47502,-0.0406 -2.60905,0.43554 -3.40161,1.42917 -0.84497,1.054 -1.35145,2.74628 -1.51935,5.07604 -0.16661,2.31216 0.0867,4.05261 0.75915,5.22186 0.67857,1.16969 1.83761,1.81368 3.47785,1.93189 1.61576,0.11648 2.84577,-0.34628 3.68989,-1.38855 0.85066,-1.0477 1.36102,-2.74847 1.5306,-5.10172 0.1645,-2.28282 -0.0922,-4.01474 -0.76989,-5.19617 -0.67118,-1.18686 -1.82687,-1.83936 -3.46711,-1.95756 -0.10136,-0.008 -0.2012,-0.0121 -0.29953,-0.0149 z m -0.21998,1.45921 c 0.13263,-0.005 0.27107,-0.003 0.41488,0.008 0.58144,0.0419 1.04712,0.19058 1.39785,0.44591 0.35684,0.25578 0.62643,0.61759 0.80809,1.08491 0.18734,0.47361 0.29386,1.04171 0.31993,1.70426 0.0322,0.663 0.0163,1.44022 -0.0479,2.33221 -0.0652,0.90374 -0.16088,1.67581 -0.28696,2.3156 -0.11953,0.63437 -0.30353,1.18128 -0.552,1.64118 -0.2415,0.44861 -0.56026,0.77394 -0.95621,0.97546 -0.39596,0.20153 -0.88172,0.28149 -1.45703,0.24004 -0.61203,-0.0441 -1.09578,-0.19991 -1.45178,-0.46743 -0.34987,-0.26706 -0.60927,-0.63694 -0.77825,-1.10924 -0.18524,-0.50295 -0.28954,-1.06502 -0.31247,-1.68606 -0.0229,-0.62104 -0.001,-1.38909 0.0645,-2.30457 0.0601,-0.83331 0.15194,-1.59636 0.27571,-2.28941 0.12988,-0.69261 0.31458,-1.24875 0.55397,-1.66802 0.25373,-0.44773 0.57567,-0.77284 0.9655,-0.9748 0.29696,-0.15115 0.64429,-0.23354 1.04214,-0.248 z m 19.33192,3.27513 -1.37931,0.0939 c 5e-4,0.35629 -0.0724,0.64587 -0.2181,0.86955 -0.14017,0.21782 -0.34193,0.40422 -0.60557,0.55915 -0.2121,0.12403 -0.52973,0.23064 -0.9528,0.31967 -0.42344,0.0836 -0.82213,0.13807 -1.19588,0.16344 l 0.0753,1.11337 2.75861,-0.18736 0.55445,8.16822 -2.75862,0.18736 0.0847,1.24427 7.17228,-0.48714 -0.0841,-1.24427 -2.70533,0.18406 z m -10.65463,11.72339 c -0.32589,0.18473 -0.68881,0.35869 -1.08824,0.52223 -0.40211,0.15879 -0.72563,0.24505 -0.97097,0.2584 -0.30538,0.016 -0.57652,-0.0284 -0.81349,-0.13299 -0.24486,-0.10638 -0.46548,-0.3086 -0.66147,-0.60612 l -1.20234,0.68171 5.42907,9.57748 -2.3593,1.33727 0.61532,1.08501 6.25359,-3.54544 -0.6148,-1.0845 -2.40519,1.36344 -4.03747,-7.12275 2.40519,-1.36343 z m -14.943767,6.37153 c -0.485248,-0.002 -0.96226,0.0928 -1.431911,0.28746 -1.249198,0.51418 -2.510402,1.75039 -3.783621,3.70868 -1.263601,1.9435 -1.883812,3.58984 -1.860394,4.93846 0.02857,1.35198 0.732093,2.47596 2.110807,3.37235 1.358135,0.88302 2.658746,1.07214 3.901531,0.56781 1.251139,-0.50591 2.519545,-1.74788 3.805595,-3.72591 1.24756,-1.91883 1.86005,-3.5589 1.83789,-4.92073 -0.0138,-1.36342 -0.7096,-2.49317 -2.0883,-3.38957 -0.85206,-0.55397 -1.68286,-0.83359 -2.491597,-0.83855 z M 99.70856,207.22 c 0.44403,0.0149 0.90784,0.17948 1.39142,0.49389 0.48871,0.31774 0.82479,0.67322 1.00838,1.06628 0.18874,0.39641 0.24981,0.84348 0.18292,1.34037 -0.0649,0.50517 -0.24584,1.05389 -0.5433,1.64648 -0.29232,0.59596 -0.68229,1.26896 -1.16976,2.01874 -0.49389,0.75964 -0.950681,1.38887 -1.370343,1.88798 -0.411305,0.49753 -0.837232,0.88751 -1.277063,1.17 -0.428273,0.27597 -0.864414,0.40617 -1.308448,0.39117 -0.444034,-0.0149 -0.907837,-0.17947 -1.391416,-0.49388 -0.514445,-0.33446 -0.862583,-0.70502 -1.044905,-1.11129 -0.177176,-0.40293 -0.225474,-0.8519 -0.145086,-1.34702 0.08099,-0.52984 0.261291,-1.07215 0.541448,-1.62688 0.280156,-0.55473 0.6705,-1.21665 1.170807,-1.98615 0.455411,-0.70046 0.904993,-1.32442 1.348372,-1.87127 0.448525,-0.54352 0.87861,-0.94071 1.290847,-1.19201 0.43856,-0.26928 0.877235,-0.39806 1.316127,-0.38641 z m 13.48712,10.3997 -1.3793,0.0934 c 5e-4,0.35629 -0.0724,0.64639 -0.21811,0.87006 -0.14017,0.21782 -0.34193,0.40422 -0.60557,0.55915 -0.2121,0.12403 -0.52973,0.23014 -0.95279,0.31915 -0.42343,0.0836 -0.82213,0.13808 -1.19588,0.16344 l 0.0758,1.11339 2.75861,-0.18736 0.53298,7.85159 c -0.27981,0.089 -0.5538,0.21356 -0.82185,0.37389 l -1.9153,0.1301 0.0841,1.24426 0.32646,-0.0224 c -0.88405,1.10192 -1.19232,2.24949 -0.92095,3.44281 0.23086,1.021 0.90274,2.12473 2.00428,3.3092 l -6.50923,-3.85842 1.40943,-2.37836 -0.95973,-0.56887 c -0.19102,0.32225 -0.41878,0.65375 -0.68413,0.99414 -0.27007,0.33761 -0.50855,0.57283 -0.71484,0.70631 -0.19677,0.12672 -0.3935,0.21199 -0.59057,0.25755 l 2.98294,-4.20273 -1.12724,-0.80041 c -0.22513,0.27614 -0.46506,0.45466 -0.71943,0.53569 -0.24636,0.08 -0.52085,0.0966 -0.82304,0.0498 -0.24272,-0.0382 -0.55583,-0.1564 -0.93979,-0.35512 -0.38079,-0.20317 -0.7241,-0.41309 -1.0296,-0.6299 l -0.64562,0.90998 2.255,1.5998 -1.74349,2.4564 -0.77281,-0.45796 c -0.0453,0.0763 -0.0994,0.15496 -0.14882,0.23234 0.36029,-1.01757 0.23971,-2.13455 -0.364256,-3.35156 -0.722862,-1.45658 -1.755082,-2.27959 -3.097417,-2.46971 -1.337067,-0.19273 -3.052125,0.23003 -5.144447,1.26839 -2.076512,1.03052 -3.447475,2.13209 -4.113323,3.30511 -0.118127,0.20994 -0.213089,0.4249 -0.286974,0.64418 l -3.114851,-1.10762 0.374482,-0.68831 -2.381667,-1.29579 5.2593,-9.67124 -1.214154,-0.66066 c -0.190732,0.30093 -0.407462,0.50671 -0.650403,0.61738 -0.235105,0.10871 -0.505496,0.15772 -0.811107,0.14716 -0.245537,-0.009 -0.570816,-0.0892 -0.975661,-0.24092 -0.402234,-0.15651 -0.768107,-0.32432 -1.097197,-0.50329 l -0.533004,0.97993 2.429339,1.32134 -3.911872,7.19217 -2.428829,-1.32081 -0.595769,1.09525 6.279891,3.41557 -0.266383,0.74994 2.604962,0.9261 -2.742608,7.71413 -1.321495,-0.47005 c -1.312836,-1.03221 -2.505921,-1.63409 -3.575141,-1.78971 -1.338894,-0.18973 -2.562066,0.32358 -3.668966,1.53978 -1.090379,1.19805 -1.486836,2.45128 -1.189418,3.7591 0.165992,0.73412 0.565503,1.51191 1.181629,2.33054 l -3.936737,-1.39993 -0.41818,1.17501 2.60548,0.9261 -1.35184,3.80155 c -0.01202,0.006 -0.0244,0.0114 -0.03644,0.017 l -0.342543,-0.91026 c -0.341102,0.1029 -0.63963,0.11715 -0.89579,0.042 -0.248951,-0.0716 -0.485567,-0.21139 -0.709845,-0.41926 -0.179838,-0.16741 -0.373078,-0.44085 -0.580122,-0.82038 -0.201923,-0.38146 -0.368996,-0.74762 -0.500889,-1.09824 l -1.044372,0.39267 0.973502,2.58832 -7.662553,2.88229 -0.973509,-2.5878 -1.167056,0.43884 2.530803,6.7289 1.167064,-0.43936 -0.954641,-2.53789 7.735331,-2.9096 c -1.02398,0.70035 -1.756976,1.42989 -2.18849,2.19009 -0.66312,1.17852 -0.629187,2.50444 0.101856,3.97751 0.720133,1.45109 1.743447,2.27546 3.069972,2.47343 1.334525,0.20084 3.058482,-0.22276 5.171888,-1.27159 2.050161,-1.01743 3.412221,-2.11817 4.085881,-3.30191 0.511673,-0.8864 0.624835,-1.85499 0.340529,-2.90603 0.135371,0.10417 0.277702,0.20621 0.429426,0.30484 1.358134,0.88302 2.658229,1.07214 3.901014,0.56781 0.35173,-0.14223 0.705022,-0.34473 1.059513,-0.6033 -0.157269,0.39509 -0.324813,0.75541 -0.503526,1.0791 l 0.97674,0.53915 1.33619,-2.42083 1.76438,0.97409 -1.585751,2.55032 -1.391445,-1.12751 -0.447321,0.71974 3.617953,2.93205 0.447324,-0.71974 -1.364387,-1.10591 1.68858,-2.71618 4.43836,2.45063 -1.336698,2.42031 1.091522,0.60295 2.292727,-4.15293 c 0.02156,0.0459 0.04161,0.0918 0.06454,0.13796 0.720131,1.45109 1.743445,2.27545 3.069969,2.47342 1.186452,0.17856 2.682612,-0.13967 4.484682,-0.94886 0.35081,0.61691 0.89623,1.16776 1.64073,1.65181 1.35814,0.88302 2.65874,1.07266 3.90152,0.56833 1.25114,-0.50591 2.51955,-1.74789 3.8056,-3.72592 1.20679,-1.85611 1.81813,-3.45091 1.83685,-4.78585 l 1.35901,-2.29283 -1.07291,-0.63625 -0.68562,1.15691 c -0.3428,-0.6594 -0.90504,-1.24391 -1.68774,-1.75279 -1.36328,-0.88636 -2.6711,-1.0697 -3.9235,-0.55058 -0.19088,0.0786 -0.38205,0.17603 -0.57349,0.28832 l -1.58199,-0.93768 1.40945,-2.37887 -0.95974,-0.56888 c -0.19102,0.32225 -0.41878,0.65375 -0.68413,0.99415 -0.27006,0.3376 -0.50855,0.57282 -0.71483,0.7063 -0.2571,0.16558 -0.51435,0.26236 -0.77196,0.28939 -0.26535,0.0293 -0.55711,-0.0367 -0.87504,-0.19752 l -0.70471,1.18919 1.46623,0.86921 c -1.27067,-0.0616 -2.8452,0.37279 -4.7264,1.30638 -2.076511,1.03051 -3.447991,2.13208 -4.113839,3.3051 -0.376641,0.66938 -0.527571,1.38632 -0.454444,2.15073 l -0.728436,1.31905 -4.35996,-2.40704 1.205751,-1.93962 c 1.066156,-0.14185 2.305954,-0.56252 3.721571,-1.26505 2.050161,-1.01744 3.412219,-2.11817 4.085879,-3.30192 0.681658,-1.18087 0.656628,-2.50764 -0.07442,-3.98072 -0.436881,-0.88033 -0.98748,-1.52779 -1.650651,-1.94551 l 0.282045,-0.79362 1.92957,0.68567 0.81488,0.57852 0.72169,-1.01683 -0.53984,-0.38303 0.0464,-0.13107 -0.46363,-0.1648 -1.254536,-0.89023 0.476556,-0.67175 6.0688,3.59733 -1.38289,2.33278 1.07292,0.63574 3.03325,-5.11675 1.82934,1.08467 -1.38289,2.33226 1.07293,0.63573 2.03242,-3.42875 c 0.36316,0.31611 0.71856,0.60265 1.06541,0.85528 -0.15367,0.57442 -0.16403,1.15996 -0.0282,1.75729 0.29764,1.31632 1.31875,2.76858 3.06362,4.35664 0.79803,0.7263 1.55653,1.29792 2.27786,1.72572 l -0.0191,0.0317 2.39475,1.41952 -1.59716,4.49238 -2.60547,-0.92661 -0.37388,1.05113 c 0.35295,0.1255 0.7223,0.28573 1.10737,0.4807 0.38322,0.20012 0.65993,0.38855 0.83058,0.56532 0.21191,0.22046 0.35603,0.45472 0.43207,0.70232 0.0798,0.25476 0.0715,0.55339 -0.0252,0.89631 l 1.30248,0.46305 2.4303,-6.83469 5.57458,3.30441 -1.38289,2.33278 1.07293,0.63574 0.49883,-0.84195 0.0771,1.13303 -2.7586,0.18736 0.0847,1.24376 7.17227,-0.48662 -0.0841,-1.24427 -2.70532,0.18353 -0.24545,-3.61537 1.62647,-2.7435 -1.07292,-0.63573 -0.7026,1.18507 -0.12922,-1.90598 c 0.91115,-0.20266 1.93116,-0.57945 3.06747,-1.14338 2.05015,-1.01743 3.41222,-2.11816 4.08588,-3.30191 0.68165,-1.18087 0.65663,-2.50764 -0.0744,-3.98071 -0.72286,-1.45659 -1.75508,-2.2801 -3.09741,-2.47023 -1.33706,-0.19273 -3.05213,0.23003 -5.14444,1.26839 -0.47032,0.23341 -0.89943,0.47106 -1.29738,0.71178 l -0.56923,-8.38241 -1.3793,0.0934 c 5e-4,0.35628 -0.0724,0.64639 -0.21811,0.87006 -0.14017,0.21781 -0.34193,0.40422 -0.60557,0.55915 -0.2121,0.12403 -0.52974,0.23065 -0.9528,0.31967 -0.42343,0.0836 -0.82161,0.13808 -1.19536,0.16345 l 0.0753,1.11286 2.75861,-0.18686 0.45042,6.63888 c -0.16893,0.15137 -0.32621,0.30388 -0.46912,0.45789 -0.52261,-0.80991 -1.26576,-1.66011 -2.24648,-2.55268 -0.47916,-0.4361 -0.94171,-0.81312 -1.39121,-1.1425 0.15249,-0.57982 0.15929,-1.17168 0.0171,-1.77607 -0.30612,-1.31574 -1.32256,-2.75991 -3.05003,-4.33213 -0.57964,-0.52754 -1.13563,-0.97028 -1.67187,-1.34167 l -0.0774,-1.14286 -1.80044,0.12205 c -0.31838,-0.11852 -0.62687,-0.20139 -0.92639,-0.25205 z m 14.63729,1.38852 c -1.14615,-0.0127 -2.20384,0.51377 -3.17237,1.57795 -1.09038,1.19805 -1.48684,2.45076 -1.18942,3.75858 0.29764,1.31633 1.31875,2.76858 3.06362,4.35664 1.69265,1.54053 3.21289,2.40991 4.56049,2.60757 1.34782,0.20614 2.57512,-0.29909 3.68203,-1.51529 1.09451,-1.20259 1.48682,-2.4639 1.17635,-3.7836 -0.30611,-1.31575 -1.32309,-2.75941 -3.05055,-4.33162 -1.71442,-1.56033 -3.2388,-2.4378 -4.57355,-2.63207 -0.16737,-0.0237 -0.33287,-0.0364 -0.4966,-0.0382 z m -0.17215,1.64188 c 0.22547,0.0125 0.4567,0.0578 0.69456,0.13735 0.50983,0.16534 1.0162,0.43125 1.51851,0.79716 0.50233,0.3659 1.09282,0.85772 1.77163,1.47551 0.61788,0.56236 1.16089,1.10626 1.62914,1.63199 0.46411,0.53026 0.78704,1.01938 0.9686,1.46673 0.19507,0.47623 0.25141,0.92957 0.16917,1.36084 -0.0864,0.4358 -0.32378,0.8674 -0.71202,1.29398 -0.39238,0.43112 -0.79734,0.7053 -1.21486,0.82314 -0.42164,0.12237 -0.87187,0.11075 -1.35148,-0.0354 -0.48808,-0.14553 -1.00065,-0.41301 -1.53756,-0.8021 -0.54104,-0.38454 -1.1422,-0.87767 -1.80359,-1.47963 -0.67011,-0.60988 -1.21777,-1.16237 -1.64272,-1.657 -0.42473,-0.48612 -0.74135,-0.96873 -0.94925,-1.44835 -0.20333,-0.46715 -0.26132,-0.91891 -0.17494,-1.35471 0.0863,-0.43581 0.32326,-0.8669 0.71149,-1.29347 0.41303,-0.45382 0.8351,-0.73789 1.26544,-0.85234 0.21311,-0.0549 0.4324,-0.076 0.65788,-0.0637 z m -31.398598,6.54676 c 0.514554,-0.009 0.957818,0.10361 1.329756,0.33684 0.374664,0.23879 0.690477,0.61637 0.946889,1.13305 0.259139,0.52217 0.367592,0.99916 0.325715,1.43095 -0.03915,0.4373 -0.213862,0.85298 -0.524206,1.24676 -0.312886,0.40188 -0.748019,0.78224 -1.305565,1.14113 -0.554815,0.3644 -1.232705,0.74525 -2.033796,1.14281 -0.811633,0.40278 -1.525374,0.71248 -2.140572,0.92873 -0.6072,0.21913 -1.171632,0.33834 -1.693999,0.35783 -0.509102,0.0197 -0.951088,-0.0897 -1.325752,-0.32852 -0.374664,-0.23878 -0.690469,-0.61689 -0.946881,-1.13356 -0.151993,-0.30627 -0.25204,-0.59531 -0.303915,-0.86831 l 1.746583,0.62082 0.417653,-1.1745 -2.009234,-0.71429 c 0.09283,-0.20137 0.217538,-0.39648 0.374958,-0.58545 0.33924,-0.41496 0.770052,-0.79021 1.293434,-1.1253 0.523378,-0.33509 1.1962,-0.7066 2.018373,-1.11461 0.748386,-0.3714 1.452702,-0.67975 2.112605,-0.92504 0.662631,-0.23979 1.235204,-0.36267 1.717954,-0.36934 z m 17.046628,2.6992 c 0.17645,0.0213 0.35545,0.0564 0.53929,0.11791 0.50985,0.16533 1.0162,0.43124 1.51852,0.79715 0.50233,0.3659 1.09282,0.85772 1.77162,1.47552 0.61789,0.56236 1.1609,1.10626 1.62914,1.63199 0.46412,0.53026 0.78706,1.01886 0.96863,1.46621 0.0973,0.23756 0.1594,0.46959 0.1877,0.69596 -0.58857,-0.29151 -1.14833,-0.48023 -1.67728,-0.55721 -1.33889,-0.18973 -2.56206,0.32358 -3.66896,1.53978 -0.10456,0.11489 -0.2009,0.22999 -0.2927,0.34589 -0.30612,-0.24933 -0.62779,-0.52668 -0.96549,-0.83306 l 0.66493,-1.12209 -1.07293,-0.63573 -0.51899,0.87575 c -0.28166,-0.2833 -0.5319,-0.5518 -0.74936,-0.80491 -0.42473,-0.48612 -0.74135,-0.96925 -0.94924,-1.44886 -0.20333,-0.46715 -0.26184,-0.9184 -0.17548,-1.35421 0.0863,-0.43581 0.32378,-0.86689 0.71202,-1.29346 0.39873,-0.43811 0.80539,-0.71674 1.22026,-0.83856 z m -11.42206,3.59221 5.83936,3.46148 -0.77741,1.31107 -5.94743,-3.52518 z m -14.545773,0.0476 c 0.07129,0.18581 0.15399,0.37384 0.248654,0.5646 0.720134,1.45109 1.743448,2.27545 3.069973,2.47341 0.291465,0.0439 0.602589,0.0565 0.931206,0.0408 l 0.802202,1.63316 -4.771371,2.34347 c -0.863173,-0.53316 -1.703921,-0.78347 -2.522406,-0.75014 z m 9.920945,0.97299 1.267025,0.75088 -0.395196,0.55724 -1.402792,-0.99538 c 0.182279,-0.10355 0.362247,-0.20756 0.530963,-0.31274 z m -1.777674,0.95656 0.982561,0.6974 -1.403736,-0.49924 c 0.137148,-0.0608 0.280425,-0.1316 0.421175,-0.19816 z m -1.197215,0.51745 -0.22964,0.64662 2.604954,0.92661 -0.292319,0.82292 c -0.246526,-0.0251 -0.50556,-0.0299 -0.776555,-0.015 l -0.522094,-1.06395 c -0.329566,0.13538 -0.62559,0.17797 -0.887817,0.1279 -0.254694,-0.0471 -0.503807,-0.16328 -0.747114,-0.34851 -0.174047,-0.13311 -0.367729,-0.35401 -0.579607,-0.65293 0.450227,-0.10537 0.92591,-0.25145 1.430191,-0.44356 z m 23.290137,1.14391 c 0.22549,0.0125 0.45723,0.0583 0.69508,0.13788 0.37584,0.12187 0.74983,0.29915 1.12158,0.53002 -0.0632,0.0818 -0.12653,0.1635 -0.20069,0.24498 -0.39236,0.43111 -0.79735,0.70582 -1.21487,0.82365 -0.42164,0.12238 -0.87236,0.11022 -1.35197,-0.0359 -0.37364,-0.11141 -0.76143,-0.29567 -1.16367,-0.5498 0.0608,-0.0781 0.12092,-0.15645 0.19174,-0.23426 0.41302,-0.45381 0.83458,-0.73789 1.26492,-0.85234 0.21312,-0.0549 0.43241,-0.0765 0.65788,-0.0643 z m 15.55291,1.60216 c 0.51455,-0.009 0.95781,0.10361 1.32975,0.33685 0.37467,0.23877 0.69048,0.61637 0.94689,1.13304 0.25914,0.52217 0.36759,0.99916 0.32571,1.43096 -0.0392,0.43729 -0.21386,0.85297 -0.52421,1.24674 -0.31287,0.4019 -0.74801,0.78225 -1.30555,1.14114 -0.55482,0.3644 -1.23271,0.74524 -2.0338,1.1428 -0.81163,0.40279 -1.52537,0.71249 -2.14058,0.92874 -0.0745,0.0269 -0.14642,0.0477 -0.21972,0.0715 l -0.0985,-1.45122 -1.37931,0.0934 c 5e-4,0.35628 -0.0724,0.64639 -0.2181,0.87007 -0.14018,0.21782 -0.34194,0.40421 -0.60558,0.55915 -0.04,0.0234 -0.0875,0.0456 -0.1349,0.0677 -0.12719,-0.0489 -0.24902,-0.1083 -0.36362,-0.18134 -0.0306,-0.0195 -0.0603,-0.0415 -0.09,-0.0629 l 0.2183,-0.61475 -1.02337,-0.36415 c -0.0167,-0.0316 -0.0356,-0.0586 -0.0518,-0.0912 -0.034,-0.0686 -0.0578,-0.13391 -0.0868,-0.20083 0.24448,-0.57982 0.33911,-1.17214 0.28124,-1.77716 l 4.18188,-0.28372 -0.0847,-1.24428 -2.70532,0.18354 -0.0371,-0.54272 c 0.51932,-0.33045 1.18097,-0.69566 1.98863,-1.09648 0.74839,-0.3714 1.45271,-0.67974 2.11262,-0.92503 0.66262,-0.23979 1.23521,-0.3632 1.71796,-0.36986 z m -12.56416,-0.0598 c 0.30823,0.25527 0.6394,0.54319 0.99647,0.86815 0.61788,0.56236 1.16089,1.10626 1.62914,1.63199 0.22377,0.25568 0.41297,0.50115 0.57107,0.73755 l -0.8816,0.0598 0.0847,1.24375 0.93023,-0.0631 c -0.033,0.41451 0.006,0.84408 0.11498,1.28868 l -3.94754,-1.4032 -0.41765,1.1745 2.12077,0.75425 c -0.26557,0.33032 -0.50082,0.56239 -0.70431,0.69408 -0.16845,0.10848 -0.33677,0.18401 -0.50544,0.23302 -0.33729,-0.15128 -0.68419,-0.35177 -1.04332,-0.61202 -0.54103,-0.38455 -1.14272,-0.87768 -1.80412,-1.47964 -0.67009,-0.60987 -1.21723,-1.16237 -1.64219,-1.657 -0.42473,-0.48612 -0.74135,-0.96873 -0.94925,-1.44834 -0.10378,-0.23843 -0.16911,-0.47309 -0.19741,-0.70335 0.58213,0.28449 1.13864,0.46915 1.66762,0.54673 1.34781,0.20615 2.57511,-0.29857 3.68201,-1.51477 0.10586,-0.11631 0.20317,-0.2336 0.29588,-0.351 z m -42.706546,0.11223 c 0.225476,0.0125 0.457217,0.0583 0.695066,0.13788 0.509847,0.16532 1.016212,0.43073 1.51853,0.79663 0.50232,0.36591 1.092816,0.85773 1.77162,1.47552 0.06379,0.0581 0.123256,0.11524 0.185454,0.17291 -0.656875,0.62829 -1.316978,1.4479 -1.980373,2.46824 -0.537956,0.82742 -0.951863,1.59757 -1.256548,2.31716 -0.257323,-0.21504 -0.522961,-0.44509 -0.801653,-0.69873 -0.670102,-0.60988 -1.21725,-1.16186 -1.642203,-1.65648 -0.424729,-0.48612 -0.741346,-0.96924 -0.949243,-1.44886 -0.203326,-0.46715 -0.261842,-0.9184 -0.175469,-1.35421 0.08637,-0.43581 0.323775,-0.86689 0.712017,-1.29347 0.413022,-0.4538 0.834582,-0.7384 1.264929,-0.85286 0.21311,-0.0549 0.432394,-0.076 0.657874,-0.0637 z m 17.909854,1.28611 -1.849481,5.20221 -2.60548,-0.9261 -0.373886,1.05114 c 0.35296,0.12549 0.722307,0.28573 1.107366,0.48069 0.383227,0.20013 0.659941,0.38855 0.830589,0.56532 0.21191,0.22047 0.35603,0.45473 0.432067,0.70233 0.0012,0.004 0.0017,0.008 0.0029,0.0125 -0.226635,0.0927 -0.446606,0.17892 -0.651459,0.25093 -0.6072,0.21914 -1.171632,0.33835 -1.693999,0.35782 -0.509102,0.0197 -0.951088,-0.0897 -1.325752,-0.32851 -0.186183,-0.11865 -0.357919,-0.27186 -0.514901,-0.45914 0.491881,-1.0815 0.732402,-2.05249 0.718421,-2.91207 -0.0042,-0.41838 -0.07316,-0.8149 -0.205923,-1.1893 0.178654,-0.14551 0.367872,-0.28661 0.575509,-0.41955 0.523378,-0.33509 1.195684,-0.70661 2.017857,-1.11463 0.748387,-0.3714 1.452703,-0.67974 2.112605,-0.92503 0.533859,-0.19319 1.006461,-0.30669 1.423559,-0.34856 z m 1.689096,0.361 c 0.346049,0.24011 0.640639,0.60134 0.881953,1.08759 0.259139,0.52217 0.367592,0.99915 0.325715,1.43096 -0.03915,0.43728 -0.213862,0.85297 -0.524206,1.24675 -0.312885,0.40188 -0.748019,0.78223 -1.305564,1.14113 -0.405659,0.26643 -0.878631,0.54207 -1.415949,0.82623 z m -11.886531,0.97298 c 0.106782,0.004 0.214927,0.0161 0.323997,0.037 l -0.851476,0.41839 -0.172866,-0.35205 c 0.233357,-0.0733 0.466897,-0.1096 0.700345,-0.10339 z m 2.015983,1.1139 c -0.111457,0.15124 -0.211318,0.30374 -0.298558,0.45743 -0.469665,0.83471 -0.587605,1.74342 -0.357901,2.72589 l -0.794193,-1.61649 c -0.0595,-0.23981 -0.142206,-0.48378 -0.248651,-0.73205 z m -4.304653,0.10094 c 0.06361,0.0692 0.129537,0.13904 0.190601,0.20761 0.464112,0.53026 0.787047,1.01886 0.968617,1.46621 0.195065,0.47623 0.251398,0.93007 0.169155,1.36134 -0.08637,0.43582 -0.323776,0.86689 -0.712016,1.29348 -0.39237,0.43112 -0.79735,0.70581 -1.214865,0.82365 -0.421645,0.12237 -0.872371,0.11023 -1.35198,-0.0359 -0.345173,-0.10294 -0.70293,-0.26991 -1.072522,-0.49464 0.05618,-0.13293 0.117662,-0.26638 0.185533,-0.40077 0.280156,-0.55473 0.670499,-1.21666 1.170807,-1.98616 0.455408,-0.70044 0.904477,-1.32442 1.347857,-1.87128 0.107326,-0.13005 0.213563,-0.25024 0.318813,-0.36356 z m 53.199527,3.74314 c -1.14615,-0.0127 -2.20332,0.51378 -3.17186,1.57796 -1.09037,1.19805 -1.48734,2.45076 -1.18992,3.75858 0.29764,1.31632 1.31926,2.76858 3.06414,4.35664 1.69265,1.54053 3.21289,2.40941 4.56049,2.60705 0.37798,0.0578 0.74588,0.0577 1.10492,0.004 l -0.12735,0.21459 1.07292,0.63573 1.09316,-1.8442 c 0.18236,-0.15759 0.36212,-0.33086 0.53837,-0.52452 0.7329,-0.80527 1.14862,-1.63723 1.25154,-2.49502 l 0.78272,-1.32029 -1.0719,-0.6352 c -0.45218,-1.13265 -1.39665,-2.35427 -2.83707,-3.66524 -1.71442,-1.56033 -3.2388,-2.43728 -4.57356,-2.63154 -0.16736,-0.0237 -0.33286,-0.0365 -0.4966,-0.0382 z m -11.71534,-0.17202 c 0.11707,0.18693 0.24083,0.3597 0.3708,0.51997 -0.0259,0.002 -0.054,0.006 -0.0797,0.008 l 0.0753,1.11285 1.25099,-0.0851 c 0.35196,0.18078 0.73295,0.30225 1.14278,0.36342 0.12895,0.0194 0.26269,0.031 0.3989,0.0388 l 0.16048,2.35817 -4.89602,-2.90166 0.067,-0.18864 c 0.49929,-0.25972 0.97831,-0.63895 1.43634,-1.14222 0.0253,-0.0278 0.0486,-0.0558 0.0731,-0.0836 z m -37.801514,-0.34535 c 0.06924,0.26002 0.162712,0.52486 0.280238,0.79507 -0.230645,0.41359 -0.495981,0.85483 -0.805099,1.33028 -0.175225,0.26951 -0.343981,0.51669 -0.509861,0.75341 l -0.503227,-0.27808 -0.668346,1.2099 c 0.111332,0.0715 0.205021,0.14812 0.290055,0.22672 -0.404811,0.48551 -0.823135,0.86834 -1.255509,1.14603 -0.428273,0.27597 -0.864412,0.40618 -1.308445,0.39119 -0.444034,-0.0149 -0.907838,-0.17947 -1.391416,-0.49389 -0.514446,-0.33447 -0.863102,-0.70503 -1.045424,-1.11131 -0.109936,-0.25001 -0.163874,-0.51981 -0.174647,-0.80532 0.492449,0.21849 0.966858,0.36787 1.420246,0.43436 1.347819,0.20615 2.575127,-0.29907 3.682025,-1.51528 0.479298,-0.52663 0.823908,-1.0645 1.033778,-1.61358 z m -12.249905,0.24019 1.961431,0.69754 c 0.01966,0.018 0.03669,0.0355 0.05654,0.0536 0.517327,0.47083 1.01661,0.87116 1.501706,1.21655 -0.03385,0.24881 -0.05031,0.48999 -0.04629,0.72129 0.0025,0.11724 0.01201,0.23181 0.02463,0.34562 -0.53354,-0.4479 -1.151229,-0.72333 -1.855094,-0.82302 -0.725292,-0.10452 -1.565833,-0.0212 -2.513355,0.23611 z m 36.101509,0.62406 c 0.44403,0.0149 0.90784,0.17946 1.39142,0.49387 0.48872,0.31775 0.82479,0.67323 1.00838,1.06629 0.0483,0.10146 0.0871,0.20648 0.11867,0.31451 l -3.05745,-1.81271 c 0.17959,-0.0423 0.35934,-0.0668 0.53898,-0.062 z m 36.5408,0.65764 c -0.19102,0.32225 -0.41928,0.65321 -0.68464,0.99361 -0.27006,0.33761 -0.50804,0.57335 -0.71432,0.70684 -0.25709,0.16557 -0.51485,0.26184 -0.77246,0.28885 -0.26536,0.0293 -0.55661,-0.0362 -0.87453,-0.19699 l -0.70524,1.18918 9.4704,5.61384 -1.38237,2.33226 1.07241,0.63574 3.66579,-6.18403 -1.07241,-0.63574 -1.40996,2.37836 -7.04288,-4.1747 1.40996,-2.37835 z m -42.33481,0.003 c 0.50797,-0.009 0.9459,0.10162 1.31488,0.32886 -0.34684,0.42795 -0.69435,0.90509 -1.04299,1.44133 -1.22682,1.88693 -1.84543,3.49241 -1.85906,4.81859 -0.67647,0.32513 -1.28418,0.58503 -1.81462,0.77149 -0.60719,0.21913 -1.17214,0.33834 -1.694507,0.35782 -0.509105,0.0197 -0.951087,-0.0897 -1.325752,-0.32851 -0.374667,-0.23879 -0.689962,-0.61637 -0.946372,-1.13304 -0.244105,-0.49188 -0.358206,-0.9404 -0.344075,-1.34649 l 0.156858,-0.28441 -0.107103,-0.0591 c 0.07963,-0.36197 0.248919,-0.70661 0.51985,-1.03182 0.339237,-0.41497 0.770564,-0.7902 1.293944,-1.12529 0.52338,-0.3351 1.196197,-0.7066 2.018387,-1.11462 0.74837,-0.3714 1.45218,-0.67976 2.11208,-0.92504 0.66263,-0.23979 1.23573,-0.36319 1.71848,-0.36985 z m 31.28712,0.63385 c 0.0134,7.2e-4 0.0273,0.004 0.0407,0.006 -0.18416,0.30493 -0.39886,0.61675 -0.64916,0.93783 -0.27006,0.3376 -0.50855,0.57334 -0.71484,0.70682 -0.25708,0.16558 -0.51433,0.26185 -0.77194,0.28887 -0.14289,0.0158 -0.29402,0.001 -0.45217,-0.0375 0.12049,-0.33086 0.32833,-0.65924 0.62456,-0.98473 0.41302,-0.4538 0.83457,-0.73789 1.26492,-0.85234 0.21312,-0.0549 0.43241,-0.0765 0.65788,-0.0642 z m 0.20632,0.0265 c 0.16026,0.0228 0.32242,0.0558 0.48874,0.11143 0.50985,0.16534 1.01569,0.43125 1.51801,0.79715 0.50231,0.36591 1.09282,0.85773 1.77162,1.47552 0.61789,0.56235 1.1609,1.10627 1.62914,1.63199 0.46411,0.53026 0.78704,1.01886 0.96861,1.46622 0.19507,0.47623 0.2514,0.93007 0.16916,1.36134 -0.007,0.0342 -0.0162,0.0684 -0.0249,0.10247 l -0.0583,0.0988 -7.04236,-4.17469 1.40995,-2.37835 z m -27.86419,-0.23262 4.44022,2.63208 -1.3829,2.33277 0.2192,0.13 c -0.0791,0.12607 -0.15761,0.25108 -0.24261,0.38181 -0.4939,0.75964 -0.95067,1.38886 -1.37033,1.88798 -0.41131,0.49753 -0.83673,0.88752 -1.27655,1.17001 -0.42828,0.27597 -0.86443,0.40669 -1.30846,0.39169 -0.44403,-0.0149 -0.90784,-0.17947 -1.39142,-0.49388 -0.51444,-0.33447 -0.8631,-0.70504 -1.04542,-1.11131 -9.6e-4,-0.003 -0.002,-0.006 -0.003,-0.009 1.663,-0.91411 2.79291,-1.89212 3.38664,-2.93543 0.68166,-1.18087 0.65716,-2.50815 -0.0739,-3.98122 -0.0378,-0.0762 -0.0775,-0.14972 -0.11698,-0.22249 0.0555,-0.0607 0.11056,-0.11656 0.16546,-0.17266 z m -20.265939,0.57942 c 0.162951,0.16241 0.33328,0.30855 0.513722,0.43482 l -0.104942,0.16894 1.391438,1.12803 -0.446258,0.71769 -2.169221,-1.19741 c 0.14518,-0.20511 0.290658,-0.41686 0.436284,-0.64085 0.134943,-0.20755 0.258887,-0.4102 0.378977,-0.61122 z m 19.089319,0.88053 c 0.12849,0.36144 0.17962,0.69999 0.1492,1.01373 -0.0392,0.4373 -0.21385,0.85246 -0.5242,1.24624 -0.31288,0.40189 -0.74802,0.78224 -1.30556,1.14114 -0.13839,0.0909 -0.28416,0.18297 -0.43788,0.27593 0.0885,-0.26048 0.1987,-0.52352 0.33315,-0.78973 0.28016,-0.55473 0.67051,-1.21717 1.17082,-1.98668 0.20598,-0.31682 0.41094,-0.61524 0.61447,-0.90063 z m -31.600049,0.68646 c 0.514555,-0.009 0.957819,0.10361 1.329756,0.33684 0.374665,0.23878 0.689962,0.61636 0.946373,1.13303 0.259137,0.52218 0.367589,0.99916 0.325712,1.43096 -0.03915,0.43729 -0.213861,0.85298 -0.524203,1.24675 -0.312888,0.40189 -0.748021,0.78224 -1.305564,1.14114 -0.554818,0.36439 -1.232705,0.74524 -2.033797,1.1428 -0.811632,0.40279 -1.524858,0.71249 -2.140058,0.92875 -0.607198,0.21912 -1.172145,0.33834 -1.694516,0.35781 -0.509101,0.0197 -0.951084,-0.0897 -1.325749,-0.32851 -0.374667,-0.23878 -0.689962,-0.61637 -0.946373,-1.13304 -0.272779,-0.54965 -0.384332,-1.04593 -0.334643,-1.48846 0.03682,-0.30695 0.143519,-0.60055 0.312869,-0.88204 5.67e-4,2.9e-4 9.7e-4,7.8e-4 0.0016,0.001 0.383227,0.20012 0.660461,0.38856 0.831107,0.56533 0.211908,0.22047 0.355523,0.45419 0.43156,0.7018 0.0798,0.25475 0.07147,0.55339 -0.02522,0.8963 l 1.302475,0.46356 2.023966,-5.69102 c 0.381307,-0.1688 0.750683,-0.32104 1.106293,-0.45322 0.662631,-0.23979 1.235727,-0.36318 1.718478,-0.36984 z m 58.034789,1.74693 8.10198,4.80247 c -0.2861,0.24504 -0.578,0.41321 -0.87699,0.49759 -0.42164,0.12237 -0.87238,0.11075 -1.35198,-0.0354 -0.48809,-0.14553 -1.00066,-0.41301 -1.53758,-0.8021 -0.54103,-0.38455 -1.14219,-0.87768 -1.80359,-1.47964 -0.67011,-0.60987 -1.21777,-1.16238 -1.64272,-1.65699 -0.3887,-0.44489 -0.68202,-0.88653 -0.88911,-1.32597 z m -63.069502,0.17952 -0.481943,1.35491 -1.019264,-0.36254 c 0.208303,-0.17867 0.436499,-0.34895 0.68698,-0.50932 0.238935,-0.15298 0.513021,-0.31487 0.814227,-0.48305 z"
       id="text962-6-6"
       inkscape:connector-curvature="0" />
    <path
       style="font-style:normal;font-variant:normal;font-weight:bold;font-stretch:normal;font-size:14.75236702px;line-height:1.25;font-family:sans-serif;-inkscape-font-specification:'sans-serif, Bold';font-variant-ligatures:normal;font-variant-caps:normal;font-variant-numeric:normal;font-feature-settings:normal;text-align:start;letter-spacing:0px;word-spacing:0px;writing-mode:lr-tb;text-anchor:start;fill:url(#linearGradient2452);fill-opacity:1;stroke:none;stroke-width:0.17505743"
       d="M 511.80078 55.576172 L 511.80078 60.417969 L 505.16406 60.417969 L 505.16406 84.621094 L 511.80078 84.621094 L 511.80078 89.462891 L 531.71289 89.462891 L 531.71289 84.621094 L 538.34961 84.621094 L 538.34961 74.939453 L 525.07617 74.939453 L 525.07617 84.621094 L 518.4375 84.621094 L 518.4375 60.417969 L 525.07617 60.417969 L 525.07617 70.099609 L 538.34961 70.099609 L 538.34961 60.417969 L 531.71289 60.417969 L 531.71289 55.576172 L 511.80078 55.576172 z M 551.5957 55.576172 L 551.5957 60.417969 L 544.95898 60.417969 L 544.95898 84.621094 L 551.5957 84.621094 L 551.5957 89.462891 L 571.50781 89.462891 L 571.50781 84.621094 L 578.14648 84.621094 L 578.14648 60.417969 L 571.50781 60.417969 L 571.50781 55.576172 L 551.5957 55.576172 z M 584.75391 55.576172 L 584.75391 89.462891 L 611.30273 89.462891 L 611.30273 84.621094 L 617.94141 84.621094 L 617.94141 60.417969 L 611.30273 60.417969 L 611.30273 55.576172 L 584.75391 55.576172 z M 624.54883 55.576172 L 624.54883 89.462891 L 657.73633 89.462891 L 657.73633 84.621094 L 637.82422 84.621094 L 637.82422 74.939453 L 651.09766 74.939453 L 651.09766 70.099609 L 637.82422 70.099609 L 637.82422 65.257812 L 657.73633 65.257812 L 657.73633 55.576172 L 624.54883 55.576172 z M 664.34375 55.576172 L 664.34375 89.462891 L 677.61914 89.462891 L 677.61914 79.78125 L 684.25586 79.78125 L 684.25586 89.462891 L 697.53125 89.462891 L 697.53125 79.78125 L 690.89453 79.78125 L 690.89453 74.939453 L 697.53125 74.939453 L 697.53125 60.417969 L 690.89453 60.417969 L 690.89453 55.576172 L 664.34375 55.576172 z M 710.77734 55.576172 L 710.77734 60.417969 L 704.13867 60.417969 L 704.13867 70.099609 L 710.77734 70.099609 L 710.77734 74.939453 L 724.05078 74.939453 L 724.05078 84.621094 L 710.77734 84.621094 L 710.77734 89.462891 L 730.68945 89.462891 L 730.68945 84.621094 L 737.32617 84.621094 L 737.32617 74.939453 L 730.68945 74.939453 L 730.68945 70.099609 L 717.41406 70.099609 L 717.41406 60.417969 L 730.68945 60.417969 L 730.68945 55.576172 L 710.77734 55.576172 z M 730.68945 60.417969 L 730.68945 65.257812 L 737.32617 65.257812 L 737.32617 60.417969 L 730.68945 60.417969 z M 710.77734 84.621094 L 710.77734 79.78125 L 704.13867 79.78125 L 704.13867 84.621094 L 710.77734 84.621094 z M 66.818359 58.058594 L 66.818359 62.900391 L 58.894531 62.900391 L 58.894531 87.103516 L 66.818359 87.103516 L 66.818359 91.945312 L 90.591797 91.945312 L 90.591797 87.103516 L 98.517578 87.103516 L 98.517578 77.421875 L 82.667969 77.421875 L 82.667969 87.103516 L 74.744141 87.103516 L 74.744141 62.900391 L 82.667969 62.900391 L 82.667969 72.582031 L 98.517578 72.582031 L 98.517578 62.900391 L 90.591797 62.900391 L 90.591797 58.058594 L 66.818359 58.058594 z M 106.40625 58.058594 L 106.40625 91.945312 L 122.25586 91.945312 L 122.25586 82.263672 L 130.18164 82.263672 L 130.18164 91.945312 L 146.0293 91.945312 L 146.0293 82.263672 L 138.10547 82.263672 L 138.10547 77.421875 L 146.0293 77.421875 L 146.0293 62.900391 L 138.10547 62.900391 L 138.10547 58.058594 L 106.40625 58.058594 z M 161.84375 58.058594 L 161.84375 62.900391 L 153.91992 62.900391 L 153.91992 91.945312 L 169.76953 91.945312 L 169.76953 82.263672 L 177.69336 82.263672 L 177.69336 91.945312 L 193.54297 91.945312 L 193.54297 62.900391 L 185.61719 62.900391 L 185.61719 58.058594 L 161.84375 58.058594 z M 209.35742 58.058594 L 209.35742 62.900391 L 201.43164 62.900391 L 201.43164 72.582031 L 209.35742 72.582031 L 209.35742 77.421875 L 225.20508 77.421875 L 225.20508 87.103516 L 209.35742 87.103516 L 209.35742 91.945312 L 233.13086 91.945312 L 233.13086 87.103516 L 241.05469 87.103516 L 241.05469 77.421875 L 233.13086 77.421875 L 233.13086 72.582031 L 217.28125 72.582031 L 217.28125 62.900391 L 233.13086 62.900391 L 233.13086 58.058594 L 209.35742 58.058594 z M 233.13086 62.900391 L 233.13086 67.740234 L 241.05469 67.740234 L 241.05469 62.900391 L 233.13086 62.900391 z M 209.35742 87.103516 L 209.35742 82.263672 L 201.43164 82.263672 L 201.43164 87.103516 L 209.35742 87.103516 z M 248.94531 58.058594 L 248.94531 91.945312 L 264.79297 91.945312 L 264.79297 77.421875 L 272.71875 77.421875 L 272.71875 91.945312 L 288.56836 91.945312 L 288.56836 58.058594 L 272.71875 58.058594 L 272.71875 72.582031 L 264.79297 72.582031 L 264.79297 58.058594 L 248.94531 58.058594 z M 558.23242 60.417969 L 564.87109 60.417969 L 564.87109 84.621094 L 558.23242 84.621094 L 558.23242 60.417969 z M 598.0293 60.417969 L 604.66602 60.417969 L 604.66602 84.621094 L 598.0293 84.621094 L 598.0293 60.417969 z M 677.61914 60.417969 L 684.25586 60.417969 L 684.25586 74.939453 L 677.61914 74.939453 L 677.61914 60.417969 z M 122.25586 62.900391 L 130.18164 62.900391 L 130.18164 77.421875 L 122.25586 77.421875 L 122.25586 62.900391 z M 169.76953 62.900391 L 177.69336 62.900391 L 177.69336 77.421875 L 169.76953 77.421875 L 169.76953 62.900391 z "
       transform="scale(0.26458333)"
       id="text2399" />
    <path
       style="font-style:normal;font-variant:normal;font-weight:bold;font-stretch:normal;font-size:14.66032028px;line-height:1.25;font-family:sans-serif;-inkscape-font-specification:'sans-serif, Bold';font-variant-ligatures:normal;font-variant-caps:normal;font-variant-numeric:normal;font-feature-settings:normal;text-align:start;letter-spacing:0px;word-spacing:0px;writing-mode:lr-tb;text-anchor:start;fill:url(#linearGradient2631);fill-opacity:1;stroke:none;stroke-width:0.17396519"
       d="M 71.560547 1035.5762 L 71.560547 1040.418 L 63.734375 1040.418 L 63.734375 1064.6211 L 71.560547 1064.6211 L 71.560547 1069.4629 L 95.039062 1069.4629 L 95.039062 1064.6211 L 102.86523 1064.6211 L 102.86523 1054.9395 L 87.212891 1054.9395 L 87.212891 1064.6211 L 79.386719 1064.6211 L 79.386719 1040.418 L 87.212891 1040.418 L 87.212891 1050.0996 L 102.86523 1050.0996 L 102.86523 1040.418 L 95.039062 1040.418 L 95.039062 1035.5762 L 71.560547 1035.5762 z M 110.65625 1035.5762 L 110.65625 1069.4629 L 126.30859 1069.4629 L 126.30859 1059.7812 L 134.13477 1059.7812 L 134.13477 1069.4629 L 149.78711 1069.4629 L 149.78711 1059.7812 L 141.96094 1059.7812 L 141.96094 1054.9395 L 149.78711 1054.9395 L 149.78711 1040.418 L 141.96094 1040.418 L 141.96094 1035.5762 L 110.65625 1035.5762 z M 165.4043 1035.5762 L 165.4043 1040.418 L 157.57812 1040.418 L 157.57812 1069.4629 L 173.23047 1069.4629 L 173.23047 1059.7812 L 181.05664 1059.7812 L 181.05664 1069.4629 L 196.70703 1069.4629 L 196.70703 1040.418 L 188.88086 1040.418 L 188.88086 1035.5762 L 165.4043 1035.5762 z M 212.32617 1035.5762 L 212.32617 1040.418 L 204.5 1040.418 L 204.5 1050.0996 L 212.32617 1050.0996 L 212.32617 1054.9395 L 227.97656 1054.9395 L 227.97656 1064.6211 L 212.32617 1064.6211 L 212.32617 1069.4629 L 235.80273 1069.4629 L 235.80273 1064.6211 L 243.62891 1064.6211 L 243.62891 1054.9395 L 235.80273 1054.9395 L 235.80273 1050.0996 L 220.15234 1050.0996 L 220.15234 1040.418 L 235.80273 1040.418 L 235.80273 1035.5762 L 212.32617 1035.5762 z M 235.80273 1040.418 L 235.80273 1045.2578 L 243.62891 1045.2578 L 243.62891 1040.418 L 235.80273 1040.418 z M 212.32617 1064.6211 L 212.32617 1059.7812 L 204.5 1059.7812 L 204.5 1064.6211 L 212.32617 1064.6211 z M 251.42188 1035.5762 L 251.42188 1069.4629 L 267.07227 1069.4629 L 267.07227 1054.9395 L 274.89844 1054.9395 L 274.89844 1069.4629 L 290.55078 1069.4629 L 290.55078 1035.5762 L 274.89844 1035.5762 L 274.89844 1050.0996 L 267.07227 1050.0996 L 267.07227 1035.5762 L 251.42188 1035.5762 z M 513.41406 1037.0059 L 513.41406 1041.8457 L 506.77539 1041.8457 L 506.77539 1066.0508 L 513.41406 1066.0508 L 513.41406 1070.8906 L 533.32617 1070.8906 L 533.32617 1066.0508 L 539.96289 1066.0508 L 539.96289 1056.3691 L 526.6875 1056.3691 L 526.6875 1066.0508 L 520.05078 1066.0508 L 520.05078 1041.8457 L 526.6875 1041.8457 L 526.6875 1051.5273 L 539.96289 1051.5273 L 539.96289 1041.8457 L 533.32617 1041.8457 L 533.32617 1037.0059 L 513.41406 1037.0059 z M 553.20898 1037.0059 L 553.20898 1041.8457 L 546.57031 1041.8457 L 546.57031 1066.0508 L 553.20898 1066.0508 L 553.20898 1070.8906 L 573.12109 1070.8906 L 573.12109 1066.0508 L 579.75781 1066.0508 L 579.75781 1041.8457 L 573.12109 1041.8457 L 573.12109 1037.0059 L 553.20898 1037.0059 z M 586.36523 1037.0059 L 586.36523 1070.8906 L 612.91602 1070.8906 L 612.91602 1066.0508 L 619.55273 1066.0508 L 619.55273 1041.8457 L 612.91602 1041.8457 L 612.91602 1037.0059 L 586.36523 1037.0059 z M 626.16211 1037.0059 L 626.16211 1070.8906 L 659.34766 1070.8906 L 659.34766 1066.0508 L 639.43555 1066.0508 L 639.43555 1056.3691 L 652.71094 1056.3691 L 652.71094 1051.5273 L 639.43555 1051.5273 L 639.43555 1046.6875 L 659.34766 1046.6875 L 659.34766 1037.0059 L 626.16211 1037.0059 z M 665.95703 1037.0059 L 665.95703 1070.8906 L 679.23047 1070.8906 L 679.23047 1061.209 L 685.86914 1061.209 L 685.86914 1070.8906 L 699.14258 1070.8906 L 699.14258 1061.209 L 692.50586 1061.209 L 692.50586 1056.3691 L 699.14258 1056.3691 L 699.14258 1041.8457 L 692.50586 1041.8457 L 692.50586 1037.0059 L 665.95703 1037.0059 z M 712.38867 1037.0059 L 712.38867 1041.8457 L 705.75195 1041.8457 L 705.75195 1051.5273 L 712.38867 1051.5273 L 712.38867 1056.3691 L 725.66406 1056.3691 L 725.66406 1066.0508 L 712.38867 1066.0508 L 712.38867 1070.8906 L 732.30078 1070.8906 L 732.30078 1066.0508 L 738.93945 1066.0508 L 738.93945 1056.3691 L 732.30078 1056.3691 L 732.30078 1051.5273 L 719.02734 1051.5273 L 719.02734 1041.8457 L 732.30078 1041.8457 L 732.30078 1037.0059 L 712.38867 1037.0059 z M 732.30078 1041.8457 L 732.30078 1046.6875 L 738.93945 1046.6875 L 738.93945 1041.8457 L 732.30078 1041.8457 z M 712.38867 1066.0508 L 712.38867 1061.209 L 705.75195 1061.209 L 705.75195 1066.0508 L 712.38867 1066.0508 z M 126.30859 1040.418 L 134.13477 1040.418 L 134.13477 1054.9395 L 126.30859 1054.9395 L 126.30859 1040.418 z M 173.23047 1040.418 L 181.05664 1040.418 L 181.05664 1054.9395 L 173.23047 1054.9395 L 173.23047 1040.418 z M 559.8457 1041.8457 L 566.48242 1041.8457 L 566.48242 1066.0508 L 559.8457 1066.0508 L 559.8457 1041.8457 z M 599.64062 1041.8457 L 606.27734 1041.8457 L 606.27734 1066.0508 L 599.64062 1066.0508 L 599.64062 1041.8457 z M 679.23047 1041.8457 L 685.86914 1041.8457 L 685.86914 1056.3691 L 679.23047 1056.3691 L 679.23047 1041.8457 z "
       id="text2399-4"
       transform="scale(0.26458333)" />
    <path
       style="opacity:1;fill:url(#linearGradient3736);fill-opacity:1;fill-rule:nonzero;stroke:#00ccff;stroke-width:0;stroke-miterlimit:4;stroke-dasharray:none;stroke-opacity:1"
       d="M 406.20703 50.197266 A 23.658272 23.658272 0 0 0 383.0293 69.121094 L 302.09766 69.121094 L 302.09766 78.685547 L 383.07422 78.685547 A 23.658272 23.658272 0 0 0 406.20703 97.513672 A 23.658272 23.658272 0 0 0 429.36133 78.685547 L 498.72461 78.685547 L 498.72461 69.121094 L 429.36133 69.121094 A 23.658272 23.658272 0 0 0 406.20703 50.197266 z M 687.90039 97.236328 L 687.90039 359.51953 L 514.65625 541.8418 A 23.658272 23.658272 0 0 0 501.42773 537.78906 A 23.658272 23.658272 0 0 0 477.76953 561.44922 A 23.658272 23.658272 0 0 0 501.42773 585.10742 A 23.658272 23.658272 0 0 0 512.64453 582.25391 L 690.4707 768.73828 L 690.4707 1031.0098 L 699.5293 1031.0098 L 699.5293 765.10938 L 519.66992 576.49609 A 23.658272 23.658272 0 0 0 525.08594 561.44922 A 23.658272 23.658272 0 0 0 521.05078 548.26758 L 696.96094 363.13672 L 696.96094 97.236328 L 687.90039 97.236328 z M 99.310547 97.302734 L 99.310547 363.20312 L 270.04297 542.24609 A 23.658272 23.658272 0 0 0 260.11523 561.47852 A 23.658272 23.658272 0 0 0 268.76367 579.74805 L 93.707031 763.98047 L 93.707031 1031.3105 L 102.76758 1031.3105 L 102.76758 767.59766 L 277.07422 584.1543 A 23.658272 23.658272 0 0 0 283.77344 585.13672 A 23.658272 23.658272 0 0 0 307.43164 561.47852 A 23.658272 23.658272 0 0 0 283.77344 537.82031 A 23.658272 23.658272 0 0 0 278.86133 538.36328 L 108.37109 359.57617 L 108.37109 97.302734 L 99.310547 97.302734 z M 406.07227 1030.8262 A 23.658272 23.658272 0 0 0 383.06055 1049.0938 L 302.32227 1049.0938 L 302.32227 1058.6602 L 382.79297 1058.6602 A 23.658272 23.658272 0 0 0 406.07227 1078.1426 A 23.658272 23.658272 0 0 0 429.33789 1058.6602 L 498.94922 1058.6602 L 498.94922 1049.0938 L 429.07812 1049.0938 A 23.658272 23.658272 0 0 0 406.07227 1030.8262 z "
       id="rect2633"
       transform="scale(0.26458333)" />
  </g>
</svg>
